<svg width="12" height="12" viewBox="0 0 12 12" fill="none" xmlns="http://www.w3.org/2000/svg">
<path d="M8.5 1H3.5C2.11929 1 1 2.11929 1 3.5V8.5C1 9.88071 2.11929 11 3.5 11H8.5C9.88071 11 11 9.88071 11 8.5V3.5C11 2.11929 9.88071 1 8.5 1Z" stroke="white" stroke-linecap="round" stroke-linejoin="round"/>
<path d="M7.99985 5.68491C8.06156 6.10103 7.99048 6.52601 7.79673 6.89941C7.60298 7.27281 7.29643 7.57561 6.92067 7.76474C6.54491 7.95387 6.11908 8.01971 5.70375 7.95287C5.28842 7.88604 4.90473 7.68995 4.60727 7.39249C4.30981 7.09503 4.11372 6.71134 4.04689 6.29601C3.98005 5.88068 4.04589 5.45485 4.23502 5.07909C4.42415 4.70333 4.72695 4.39678 5.10035 4.20303C5.47375 4.00928 5.89873 3.9382 6.31485 3.99991C6.73932 4.06285 7.13228 4.26064 7.4357 4.56406C7.73912 4.86748 7.93691 5.26045 7.99985 5.68491Z" stroke="white" stroke-linecap="round" stroke-linejoin="round"/>
<path d="M8.75 3.25H8.755" stroke="white" stroke-linecap="round" stroke-linejoin="round"/>
</svg>
