<svg width="16" height="16" viewBox="0 0 16 16" fill="none" xmlns="http://www.w3.org/2000/svg">
<rect width="16" height="16" rx="3" fill="#00AEE3"/>
<path d="M13 4.00448C12.5647 4.30564 12.0828 4.53597 11.5727 4.68662C11.299 4.37788 10.9352 4.15905 10.5305 4.05973C10.1258 3.96042 9.69977 3.9854 9.31004 4.1313C8.9203 4.27721 8.58566 4.53699 8.35136 4.87553C8.11706 5.21406 7.99441 5.615 8 6.02414V6.46997C7.2012 6.49029 6.40967 6.31652 5.69591 5.96415C4.98216 5.61177 4.36833 5.09172 3.90909 4.45032C3.90909 4.45032 2.09091 8.46288 6.18182 10.2462C5.24569 10.8695 4.13053 11.182 3 11.1379C7.09091 13.3671 12.0909 11.1379 12.0909 6.01076C12.0905 5.88657 12.0783 5.76269 12.0545 5.64071C12.5185 5.19197 12.8458 4.62541 13 4.00448Z" fill="white" stroke="white" stroke-linecap="round" stroke-linejoin="round"/>
</svg>
