<svg width="52" height="20" viewBox="0 0 52 20" fill="none" xmlns="http://www.w3.org/2000/svg">
<rect width="52" height="20" rx="5" fill="#200F26"/>
<path d="M12.6947 3.22318C12.6947 3.87511 12.4147 4.52132 12.0263 4.98453C11.6037 5.49922 10.896 5.88237 10.3298 5.88237C10.2277 5.88237 10.1439 5.79666 10.1382 5.69405C10.1373 5.67715 10.1367 5.65976 10.1367 5.64218C10.1367 4.98453 10.4616 4.34404 10.8216 3.93801C11.2203 3.46872 11.8501 3.10402 12.4215 3.00375C12.5624 2.97903 12.6947 3.07916 12.6947 3.22318ZM14.5583 12.2436C14.8812 12.5065 15.1127 12.9996 14.9426 13.381C14.806 13.6873 14.6151 14.0587 14.3603 14.4331C13.8237 15.1994 13.2585 15.9829 12.4123 15.9829C11.5507 15.9829 11.3332 15.4796 10.3506 15.4796C9.38625 15.4796 9.0432 16 8.26627 16C7.4842 16 6.94181 15.2795 6.31934 14.3988C5.5884 13.358 5 11.751 5 10.2355C5 7.78796 6.58855 6.48982 8.15324 6.48982C8.97566 6.48982 9.67252 7.03309 10.1979 7.03309C10.6891 7.03309 11.4598 6.4555 12.414 6.4555C12.703 6.4555 13.6419 6.47915 14.4359 7.18418C14.7243 7.44024 14.6258 7.86969 14.3547 8.14421C13.9778 8.52569 13.5447 9.16579 13.5447 10.104C13.5447 11.1849 14.0894 11.862 14.5583 12.2436Z" fill="white"/>
<path d="M18.504 12.048C18.408 12.048 18.33 12.026 18.27 11.982C18.214 11.938 18.18 11.88 18.168 11.808C18.156 11.732 18.17 11.648 18.21 11.556L19.794 8.046C19.846 7.93 19.908 7.848 19.98 7.8C20.056 7.748 20.142 7.722 20.238 7.722C20.33 7.722 20.412 7.748 20.484 7.8C20.56 7.848 20.624 7.93 20.676 8.046L22.266 11.556C22.31 11.648 22.326 11.732 22.314 11.808C22.302 11.884 22.268 11.944 22.212 11.988C22.156 12.028 22.082 12.048 21.99 12.048C21.878 12.048 21.79 12.022 21.726 11.97C21.666 11.914 21.612 11.83 21.564 11.718L21.174 10.812L21.498 11.022H18.966L19.29 10.812L18.906 11.718C18.854 11.834 18.8 11.918 18.744 11.97C18.688 12.022 18.608 12.048 18.504 12.048ZM20.226 8.604L19.386 10.602L19.23 10.41H21.234L21.084 10.602L20.238 8.604H20.226ZM23.2268 13.128C23.1068 13.128 23.0148 13.096 22.9508 13.032C22.8868 12.968 22.8548 12.874 22.8548 12.75V9.396C22.8548 9.272 22.8868 9.178 22.9508 9.114C23.0148 9.05 23.1048 9.018 23.2208 9.018C23.3408 9.018 23.4328 9.05 23.4968 9.114C23.5608 9.178 23.5928 9.272 23.5928 9.396V9.864L23.5268 9.684C23.5868 9.48 23.7088 9.316 23.8928 9.192C24.0808 9.068 24.2988 9.006 24.5468 9.006C24.8028 9.006 25.0268 9.068 25.2188 9.192C25.4148 9.316 25.5668 9.492 25.6748 9.72C25.7828 9.944 25.8368 10.214 25.8368 10.53C25.8368 10.842 25.7828 11.114 25.6748 11.346C25.5668 11.574 25.4168 11.75 25.2248 11.874C25.0328 11.998 24.8068 12.06 24.5468 12.06C24.3028 12.06 24.0888 12 23.9048 11.88C23.7208 11.756 23.5968 11.596 23.5328 11.4H23.6048V12.75C23.6048 12.874 23.5708 12.968 23.5028 13.032C23.4388 13.096 23.3468 13.128 23.2268 13.128ZM24.3368 11.49C24.4848 11.49 24.6148 11.454 24.7268 11.382C24.8388 11.31 24.9248 11.204 24.9848 11.064C25.0488 10.92 25.0808 10.742 25.0808 10.53C25.0808 10.21 25.0128 9.972 24.8768 9.816C24.7408 9.656 24.5608 9.576 24.3368 9.576C24.1888 9.576 24.0588 9.612 23.9468 9.684C23.8348 9.752 23.7468 9.858 23.6828 10.002C23.6228 10.142 23.5928 10.318 23.5928 10.53C23.5928 10.846 23.6608 11.086 23.7968 11.25C23.9328 11.41 24.1128 11.49 24.3368 11.49ZM26.8245 13.128C26.7045 13.128 26.6125 13.096 26.5485 13.032C26.4845 12.968 26.4525 12.874 26.4525 12.75V9.396C26.4525 9.272 26.4845 9.178 26.5485 9.114C26.6125 9.05 26.7025 9.018 26.8185 9.018C26.9385 9.018 27.0305 9.05 27.0945 9.114C27.1585 9.178 27.1905 9.272 27.1905 9.396V9.864L27.1245 9.684C27.1845 9.48 27.3065 9.316 27.4905 9.192C27.6785 9.068 27.8965 9.006 28.1445 9.006C28.4005 9.006 28.6245 9.068 28.8165 9.192C29.0125 9.316 29.1645 9.492 29.2725 9.72C29.3805 9.944 29.4345 10.214 29.4345 10.53C29.4345 10.842 29.3805 11.114 29.2725 11.346C29.1645 11.574 29.0145 11.75 28.8225 11.874C28.6305 11.998 28.4045 12.06 28.1445 12.06C27.9005 12.06 27.6865 12 27.5025 11.88C27.3185 11.756 27.1945 11.596 27.1305 11.4H27.2025V12.75C27.2025 12.874 27.1685 12.968 27.1005 13.032C27.0365 13.096 26.9445 13.128 26.8245 13.128ZM27.9345 11.49C28.0825 11.49 28.2125 11.454 28.3245 11.382C28.4365 11.31 28.5225 11.204 28.5825 11.064C28.6465 10.92 28.6785 10.742 28.6785 10.53C28.6785 10.21 28.6105 9.972 28.4745 9.816C28.3385 9.656 28.1585 9.576 27.9345 9.576C27.7865 9.576 27.6565 9.612 27.5445 9.684C27.4325 9.752 27.3445 9.858 27.2805 10.002C27.2205 10.142 27.1905 10.318 27.1905 10.53C27.1905 10.846 27.2585 11.086 27.3945 11.25C27.5305 11.41 27.7105 11.49 27.9345 11.49ZM33.2091 12.06C33.0331 12.06 32.8571 12.046 32.6811 12.018C32.5051 11.994 32.3391 11.956 32.1831 11.904C32.0271 11.848 31.8871 11.78 31.7631 11.7C31.6911 11.652 31.6411 11.594 31.6131 11.526C31.5851 11.458 31.5751 11.392 31.5831 11.328C31.5951 11.26 31.6211 11.202 31.6611 11.154C31.7051 11.102 31.7591 11.07 31.8231 11.058C31.8871 11.046 31.9571 11.064 32.0331 11.112C32.2091 11.216 32.3951 11.292 32.5911 11.34C32.7871 11.388 32.9931 11.412 33.2091 11.412C33.5251 11.412 33.7551 11.36 33.8991 11.256C34.0431 11.148 34.1151 11.01 34.1151 10.842C34.1151 10.702 34.0631 10.592 33.9591 10.512C33.8591 10.432 33.6851 10.366 33.4371 10.314L32.7771 10.176C32.3971 10.096 32.1131 9.962 31.9251 9.774C31.7411 9.582 31.6491 9.33 31.6491 9.018C31.6491 8.822 31.6891 8.644 31.7691 8.484C31.8491 8.324 31.9611 8.186 32.1051 8.07C32.2531 7.954 32.4271 7.866 32.6271 7.806C32.8311 7.742 33.0551 7.71 33.2991 7.71C33.5391 7.71 33.7671 7.74 33.9831 7.8C34.1991 7.86 34.3931 7.948 34.5651 8.064C34.6291 8.108 34.6711 8.162 34.6911 8.226C34.7151 8.29 34.7211 8.354 34.7091 8.418C34.6971 8.478 34.6691 8.53 34.6251 8.574C34.5811 8.618 34.5251 8.644 34.4571 8.652C34.3931 8.66 34.3191 8.64 34.2351 8.592C34.0871 8.508 33.9371 8.448 33.7851 8.412C33.6331 8.376 33.4691 8.358 33.2931 8.358C33.1091 8.358 32.9511 8.384 32.8191 8.436C32.6871 8.488 32.5851 8.562 32.5131 8.658C32.4451 8.75 32.4111 8.86 32.4111 8.988C32.4111 9.132 32.4591 9.248 32.5551 9.336C32.6511 9.42 32.8151 9.486 33.0471 9.534L33.7011 9.672C34.0971 9.756 34.3911 9.888 34.5831 10.068C34.7791 10.248 34.8771 10.488 34.8771 10.788C34.8771 10.98 34.8371 11.154 34.7571 11.31C34.6811 11.466 34.5691 11.6 34.4211 11.712C34.2771 11.824 34.1031 11.91 33.8991 11.97C33.6951 12.03 33.4651 12.06 33.2091 12.06ZM36.7789 12.06C36.5189 12.06 36.3009 12.016 36.1249 11.928C35.9529 11.84 35.8249 11.712 35.7409 11.544C35.6569 11.372 35.6149 11.16 35.6149 10.908V9.63H35.3029C35.2069 9.63 35.1329 9.606 35.0809 9.558C35.0289 9.506 35.0029 9.436 35.0029 9.348C35.0029 9.256 35.0289 9.186 35.0809 9.138C35.1329 9.09 35.2069 9.066 35.3029 9.066H35.6149V8.52C35.6149 8.396 35.6469 8.302 35.7109 8.238C35.7789 8.174 35.8729 8.142 35.9929 8.142C36.1129 8.142 36.2049 8.174 36.2689 8.238C36.3329 8.302 36.3649 8.396 36.3649 8.52V9.066H37.0009C37.0969 9.066 37.1709 9.09 37.2229 9.138C37.2749 9.186 37.3009 9.256 37.3009 9.348C37.3009 9.436 37.2749 9.506 37.2229 9.558C37.1709 9.606 37.0969 9.63 37.0009 9.63H36.3649V10.866C36.3649 11.058 36.4069 11.202 36.4909 11.298C36.5749 11.394 36.7109 11.442 36.8989 11.442C36.9669 11.442 37.0269 11.436 37.0789 11.424C37.1309 11.412 37.1769 11.404 37.2169 11.4C37.2649 11.396 37.3049 11.412 37.3369 11.448C37.3689 11.48 37.3849 11.548 37.3849 11.652C37.3849 11.732 37.3709 11.804 37.3429 11.868C37.3189 11.928 37.2729 11.97 37.2049 11.994C37.1529 12.01 37.0849 12.024 37.0009 12.036C36.9169 12.052 36.8429 12.06 36.7789 12.06ZM39.0464 12.06C38.7424 12.06 38.4784 11.998 38.2544 11.874C38.0304 11.75 37.8564 11.574 37.7324 11.346C37.6084 11.114 37.5464 10.842 37.5464 10.53C37.5464 10.294 37.5804 10.084 37.6484 9.9C37.7204 9.712 37.8224 9.552 37.9544 9.42C38.0864 9.284 38.2444 9.182 38.4284 9.114C38.6124 9.042 38.8184 9.006 39.0464 9.006C39.3504 9.006 39.6144 9.068 39.8384 9.192C40.0624 9.316 40.2364 9.492 40.3604 9.72C40.4844 9.948 40.5464 10.218 40.5464 10.53C40.5464 10.766 40.5104 10.978 40.4384 11.166C40.3704 11.354 40.2704 11.516 40.1384 11.652C40.0064 11.784 39.8484 11.886 39.6644 11.958C39.4804 12.026 39.2744 12.06 39.0464 12.06ZM39.0464 11.49C39.1944 11.49 39.3244 11.454 39.4364 11.382C39.5484 11.31 39.6344 11.204 39.6944 11.064C39.7584 10.92 39.7904 10.742 39.7904 10.53C39.7904 10.21 39.7224 9.972 39.5864 9.816C39.4504 9.656 39.2704 9.576 39.0464 9.576C38.8984 9.576 38.7684 9.612 38.6564 9.684C38.5444 9.752 38.4564 9.858 38.3924 10.002C38.3324 10.142 38.3024 10.318 38.3024 10.53C38.3024 10.846 38.3704 11.086 38.5064 11.25C38.6424 11.41 38.8224 11.49 39.0464 11.49ZM41.5494 12.048C41.4254 12.048 41.3294 12.016 41.2614 11.952C41.1974 11.884 41.1654 11.788 41.1654 11.664V9.396C41.1654 9.272 41.1974 9.178 41.2614 9.114C41.3254 9.05 41.4154 9.018 41.5314 9.018C41.6474 9.018 41.7374 9.05 41.8014 9.114C41.8654 9.178 41.8974 9.272 41.8974 9.396V9.774H41.8374C41.8934 9.534 42.0034 9.352 42.1674 9.228C42.3314 9.104 42.5494 9.03 42.8214 9.006C42.9054 8.998 42.9714 9.02 43.0194 9.072C43.0714 9.12 43.1014 9.196 43.1094 9.3C43.1174 9.4 43.0934 9.482 43.0374 9.546C42.9854 9.606 42.9054 9.642 42.7974 9.654L42.6654 9.666C42.4214 9.69 42.2374 9.766 42.1134 9.894C41.9894 10.018 41.9274 10.194 41.9274 10.422V11.664C41.9274 11.788 41.8954 11.884 41.8314 11.952C41.7674 12.016 41.6734 12.048 41.5494 12.048ZM44.9141 12.06C44.5821 12.06 44.2961 11.998 44.0561 11.874C43.8161 11.75 43.6301 11.574 43.4981 11.346C43.3701 11.118 43.3061 10.848 43.3061 10.536C43.3061 10.232 43.3681 9.966 43.4921 9.738C43.6201 9.51 43.7941 9.332 44.0141 9.204C44.2381 9.072 44.4921 9.006 44.7761 9.006C44.9841 9.006 45.1701 9.04 45.3341 9.108C45.5021 9.176 45.6441 9.274 45.7601 9.402C45.8801 9.53 45.9701 9.686 46.0301 9.87C46.0941 10.05 46.1261 10.254 46.1261 10.482C46.1261 10.554 46.1001 10.61 46.0481 10.65C46.0001 10.686 45.9301 10.704 45.8381 10.704H43.9121V10.272H45.5981L45.5021 10.362C45.5021 10.178 45.4741 10.024 45.4181 9.9C45.3661 9.776 45.2881 9.682 45.1841 9.618C45.0841 9.55 44.9581 9.516 44.8061 9.516C44.6381 9.516 44.4941 9.556 44.3741 9.636C44.2581 9.712 44.1681 9.822 44.1041 9.966C44.0441 10.106 44.0141 10.274 44.0141 10.47V10.512C44.0141 10.84 44.0901 11.086 44.2421 11.25C44.3981 11.41 44.6261 11.49 44.9261 11.49C45.0301 11.49 45.1461 11.478 45.2741 11.454C45.4061 11.426 45.5301 11.38 45.6461 11.316C45.7301 11.268 45.8041 11.248 45.8681 11.256C45.9321 11.26 45.9821 11.282 46.0181 11.322C46.0581 11.362 46.0821 11.412 46.0901 11.472C46.0981 11.528 46.0861 11.586 46.0541 11.646C46.0261 11.706 45.9761 11.758 45.9041 11.802C45.7641 11.89 45.6021 11.956 45.4181 12C45.2381 12.04 45.0701 12.06 44.9141 12.06Z" fill="white"/>
</svg>
