<svg width="61" height="20" viewBox="0 0 61 20" fill="none" xmlns="http://www.w3.org/2000/svg">
<rect width="61" height="20" rx="5" fill="#200F26"/>
<path d="M7 5.84269C7 5.04925 7.87974 4.57183 8.54499 5.00424L15.7101 9.66156C16.3168 10.0559 16.3168 10.9441 15.7101 11.3384L8.54499 15.9958C7.87974 16.4282 7 15.9508 7 15.1573V5.84269Z" fill="white"/>
<path d="M22.496 12.06C22.028 12.06 21.632 11.972 21.308 11.796C20.988 11.62 20.744 11.37 20.576 11.046C20.408 10.722 20.324 10.338 20.324 9.894C20.324 9.558 20.372 9.256 20.468 8.988C20.568 8.72 20.71 8.492 20.894 8.304C21.082 8.112 21.31 7.966 21.578 7.866C21.846 7.762 22.15 7.71 22.49 7.71C22.714 7.71 22.938 7.738 23.162 7.794C23.39 7.846 23.604 7.936 23.804 8.064C23.872 8.108 23.916 8.162 23.936 8.226C23.96 8.29 23.964 8.356 23.948 8.424C23.932 8.488 23.902 8.544 23.858 8.592C23.814 8.64 23.758 8.67 23.69 8.682C23.626 8.694 23.554 8.678 23.474 8.634C23.322 8.546 23.168 8.482 23.012 8.442C22.856 8.402 22.682 8.382 22.49 8.382C22.194 8.382 21.944 8.442 21.74 8.562C21.536 8.678 21.382 8.848 21.278 9.072C21.178 9.296 21.128 9.57 21.128 9.894C21.128 10.386 21.246 10.76 21.482 11.016C21.718 11.272 22.068 11.4 22.532 11.4C22.692 11.4 22.854 11.384 23.018 11.352C23.182 11.32 23.342 11.276 23.498 11.22L23.348 11.562V10.284H22.688C22.588 10.284 22.51 10.258 22.454 10.206C22.402 10.154 22.376 10.084 22.376 9.996C22.376 9.904 22.402 9.834 22.454 9.786C22.51 9.738 22.588 9.714 22.688 9.714H23.678C23.778 9.714 23.854 9.742 23.906 9.798C23.962 9.85 23.99 9.926 23.99 10.026V11.484C23.99 11.572 23.972 11.646 23.936 11.706C23.904 11.766 23.85 11.81 23.774 11.838C23.598 11.902 23.396 11.956 23.168 12C22.94 12.04 22.716 12.06 22.496 12.06ZM26.146 12.06C25.842 12.06 25.578 11.998 25.354 11.874C25.13 11.75 24.956 11.574 24.832 11.346C24.708 11.114 24.646 10.842 24.646 10.53C24.646 10.294 24.68 10.084 24.748 9.9C24.82 9.712 24.922 9.552 25.054 9.42C25.186 9.284 25.344 9.182 25.528 9.114C25.712 9.042 25.918 9.006 26.146 9.006C26.45 9.006 26.714 9.068 26.938 9.192C27.162 9.316 27.336 9.492 27.46 9.72C27.584 9.948 27.646 10.218 27.646 10.53C27.646 10.766 27.61 10.978 27.538 11.166C27.47 11.354 27.37 11.516 27.238 11.652C27.106 11.784 26.948 11.886 26.764 11.958C26.58 12.026 26.374 12.06 26.146 12.06ZM26.146 11.49C26.294 11.49 26.424 11.454 26.536 11.382C26.648 11.31 26.734 11.204 26.794 11.064C26.858 10.92 26.89 10.742 26.89 10.53C26.89 10.21 26.822 9.972 26.686 9.816C26.55 9.656 26.37 9.576 26.146 9.576C25.998 9.576 25.868 9.612 25.756 9.684C25.644 9.752 25.556 9.858 25.492 10.002C25.432 10.142 25.402 10.318 25.402 10.53C25.402 10.846 25.47 11.086 25.606 11.25C25.742 11.41 25.922 11.49 26.146 11.49ZM29.603 12.06C29.299 12.06 29.035 11.998 28.811 11.874C28.587 11.75 28.413 11.574 28.289 11.346C28.165 11.114 28.103 10.842 28.103 10.53C28.103 10.294 28.137 10.084 28.205 9.9C28.277 9.712 28.379 9.552 28.511 9.42C28.643 9.284 28.801 9.182 28.985 9.114C29.169 9.042 29.375 9.006 29.603 9.006C29.907 9.006 30.171 9.068 30.395 9.192C30.619 9.316 30.793 9.492 30.917 9.72C31.041 9.948 31.103 10.218 31.103 10.53C31.103 10.766 31.067 10.978 30.995 11.166C30.927 11.354 30.827 11.516 30.695 11.652C30.563 11.784 30.405 11.886 30.221 11.958C30.037 12.026 29.831 12.06 29.603 12.06ZM29.603 11.49C29.751 11.49 29.881 11.454 29.993 11.382C30.105 11.31 30.191 11.204 30.251 11.064C30.315 10.92 30.347 10.742 30.347 10.53C30.347 10.21 30.279 9.972 30.143 9.816C30.007 9.656 29.827 9.576 29.603 9.576C29.455 9.576 29.325 9.612 29.213 9.684C29.101 9.752 29.013 9.858 28.949 10.002C28.889 10.142 28.859 10.318 28.859 10.53C28.859 10.846 28.927 11.086 29.063 11.25C29.199 11.41 29.379 11.49 29.603 11.49ZM33.09 13.14C32.874 13.14 32.664 13.12 32.46 13.08C32.26 13.04 32.078 12.978 31.914 12.894C31.838 12.854 31.786 12.806 31.758 12.75C31.734 12.694 31.726 12.636 31.734 12.576C31.746 12.52 31.77 12.47 31.806 12.426C31.846 12.382 31.894 12.352 31.95 12.336C32.006 12.32 32.064 12.328 32.124 12.36C32.3 12.448 32.466 12.504 32.622 12.528C32.782 12.556 32.918 12.57 33.03 12.57C33.298 12.57 33.498 12.504 33.63 12.372C33.766 12.244 33.834 12.052 33.834 11.796V11.256H33.888C33.828 11.46 33.702 11.624 33.51 11.748C33.322 11.868 33.108 11.928 32.868 11.928C32.604 11.928 32.374 11.868 32.178 11.748C31.982 11.624 31.83 11.452 31.722 11.232C31.614 11.012 31.56 10.756 31.56 10.464C31.56 10.244 31.59 10.046 31.65 9.87C31.714 9.69 31.802 9.536 31.914 9.408C32.03 9.28 32.168 9.182 32.328 9.114C32.492 9.042 32.672 9.006 32.868 9.006C33.116 9.006 33.332 9.068 33.516 9.192C33.704 9.312 33.826 9.472 33.882 9.672L33.822 9.822V9.396C33.822 9.272 33.854 9.178 33.918 9.114C33.986 9.05 34.078 9.018 34.194 9.018C34.314 9.018 34.406 9.05 34.47 9.114C34.534 9.178 34.566 9.272 34.566 9.396V11.706C34.566 12.182 34.44 12.54 34.188 12.78C33.936 13.02 33.57 13.14 33.09 13.14ZM33.072 11.358C33.228 11.358 33.362 11.322 33.474 11.25C33.586 11.178 33.672 11.076 33.732 10.944C33.796 10.808 33.828 10.648 33.828 10.464C33.828 10.188 33.76 9.972 33.624 9.816C33.488 9.656 33.304 9.576 33.072 9.576C32.916 9.576 32.782 9.612 32.67 9.684C32.558 9.756 32.47 9.858 32.406 9.99C32.346 10.122 32.316 10.28 32.316 10.464C32.316 10.74 32.384 10.958 32.52 11.118C32.656 11.278 32.84 11.358 33.072 11.358ZM36.3451 12.06C36.0131 12.06 35.7631 11.966 35.5951 11.778C35.4271 11.586 35.3431 11.306 35.3431 10.938V8.1C35.3431 7.976 35.3751 7.882 35.4391 7.818C35.5031 7.754 35.5951 7.722 35.7151 7.722C35.8351 7.722 35.9271 7.754 35.9911 7.818C36.0591 7.882 36.0931 7.976 36.0931 8.1V10.902C36.0931 11.086 36.1311 11.222 36.2071 11.31C36.2871 11.398 36.3991 11.442 36.5431 11.442C36.5751 11.442 36.6051 11.442 36.6331 11.442C36.6611 11.438 36.6891 11.434 36.7171 11.43C36.7731 11.422 36.8111 11.438 36.8311 11.478C36.8511 11.514 36.8611 11.59 36.8611 11.706C36.8611 11.806 36.8411 11.884 36.8011 11.94C36.7611 11.996 36.6951 12.03 36.6031 12.042C36.5631 12.046 36.5211 12.05 36.4771 12.054C36.4331 12.058 36.3891 12.06 36.3451 12.06ZM38.6758 12.06C38.3438 12.06 38.0578 11.998 37.8178 11.874C37.5778 11.75 37.3918 11.574 37.2598 11.346C37.1318 11.118 37.0678 10.848 37.0678 10.536C37.0678 10.232 37.1298 9.966 37.2538 9.738C37.3818 9.51 37.5558 9.332 37.7758 9.204C37.9998 9.072 38.2538 9.006 38.5378 9.006C38.7458 9.006 38.9318 9.04 39.0958 9.108C39.2638 9.176 39.4058 9.274 39.5218 9.402C39.6418 9.53 39.7318 9.686 39.7918 9.87C39.8558 10.05 39.8878 10.254 39.8878 10.482C39.8878 10.554 39.8618 10.61 39.8098 10.65C39.7618 10.686 39.6918 10.704 39.5998 10.704H37.6738V10.272H39.3598L39.2638 10.362C39.2638 10.178 39.2358 10.024 39.1798 9.9C39.1278 9.776 39.0498 9.682 38.9458 9.618C38.8458 9.55 38.7198 9.516 38.5678 9.516C38.3998 9.516 38.2558 9.556 38.1358 9.636C38.0198 9.712 37.9298 9.822 37.8658 9.966C37.8058 10.106 37.7758 10.274 37.7758 10.47V10.512C37.7758 10.84 37.8518 11.086 38.0038 11.25C38.1598 11.41 38.3878 11.49 38.6878 11.49C38.7918 11.49 38.9078 11.478 39.0358 11.454C39.1678 11.426 39.2918 11.38 39.4078 11.316C39.4918 11.268 39.5658 11.248 39.6298 11.256C39.6938 11.26 39.7438 11.282 39.7798 11.322C39.8198 11.362 39.8438 11.412 39.8518 11.472C39.8598 11.528 39.8478 11.586 39.8158 11.646C39.7878 11.706 39.7378 11.758 39.6658 11.802C39.5258 11.89 39.3638 11.956 39.1798 12C38.9998 12.04 38.8318 12.06 38.6758 12.06ZM42.5667 12.048C42.4427 12.048 42.3467 12.014 42.2787 11.946C42.2147 11.874 42.1827 11.776 42.1827 11.652V8.16C42.1827 8.032 42.2167 7.936 42.2847 7.872C42.3527 7.804 42.4487 7.77 42.5727 7.77H44.0187C44.4827 7.77 44.8407 7.886 45.0927 8.118C45.3447 8.35 45.4707 8.674 45.4707 9.09C45.4707 9.506 45.3447 9.832 45.0927 10.068C44.8407 10.3 44.4827 10.416 44.0187 10.416H42.9507V11.652C42.9507 11.776 42.9187 11.874 42.8547 11.946C42.7907 12.014 42.6947 12.048 42.5667 12.048ZM42.9507 9.81H43.8987C44.1707 9.81 44.3767 9.75 44.5167 9.63C44.6567 9.506 44.7267 9.326 44.7267 9.09C44.7267 8.854 44.6567 8.676 44.5167 8.556C44.3767 8.436 44.1707 8.376 43.8987 8.376H42.9507V9.81ZM47.0268 12.06C46.6948 12.06 46.4448 11.966 46.2768 11.778C46.1088 11.586 46.0248 11.306 46.0248 10.938V8.1C46.0248 7.976 46.0568 7.882 46.1208 7.818C46.1848 7.754 46.2768 7.722 46.3968 7.722C46.5168 7.722 46.6088 7.754 46.6728 7.818C46.7408 7.882 46.7748 7.976 46.7748 8.1V10.902C46.7748 11.086 46.8128 11.222 46.8888 11.31C46.9688 11.398 47.0808 11.442 47.2248 11.442C47.2568 11.442 47.2868 11.442 47.3148 11.442C47.3428 11.438 47.3708 11.434 47.3988 11.43C47.4548 11.422 47.4928 11.438 47.5128 11.478C47.5328 11.514 47.5428 11.59 47.5428 11.706C47.5428 11.806 47.5228 11.884 47.4828 11.94C47.4428 11.996 47.3768 12.03 47.2848 12.042C47.2448 12.046 47.2028 12.05 47.1588 12.054C47.1148 12.058 47.0708 12.06 47.0268 12.06ZM48.9068 12.06C48.6948 12.06 48.5048 12.02 48.3368 11.94C48.1728 11.856 48.0428 11.744 47.9468 11.604C47.8548 11.464 47.8088 11.306 47.8088 11.13C47.8088 10.914 47.8648 10.744 47.9768 10.62C48.0888 10.492 48.2708 10.4 48.5228 10.344C48.7748 10.288 49.1128 10.26 49.5368 10.26H49.8368V10.692H49.5428C49.2948 10.692 49.0968 10.704 48.9488 10.728C48.8008 10.752 48.6948 10.794 48.6308 10.854C48.5708 10.91 48.5408 10.99 48.5408 11.094C48.5408 11.226 48.5868 11.334 48.6788 11.418C48.7708 11.502 48.8988 11.544 49.0628 11.544C49.1948 11.544 49.3108 11.514 49.4108 11.454C49.5148 11.39 49.5968 11.304 49.6568 11.196C49.7168 11.088 49.7468 10.964 49.7468 10.824V10.134C49.7468 9.934 49.7028 9.79 49.6148 9.702C49.5268 9.614 49.3788 9.57 49.1708 9.57C49.0548 9.57 48.9288 9.584 48.7928 9.612C48.6608 9.64 48.5208 9.688 48.3728 9.756C48.2968 9.792 48.2288 9.802 48.1688 9.786C48.1128 9.77 48.0688 9.738 48.0368 9.69C48.0048 9.638 47.9888 9.582 47.9888 9.522C47.9888 9.462 48.0048 9.404 48.0368 9.348C48.0688 9.288 48.1228 9.244 48.1988 9.216C48.3828 9.14 48.5588 9.086 48.7268 9.054C48.8988 9.022 49.0548 9.006 49.1948 9.006C49.4828 9.006 49.7188 9.05 49.9028 9.138C50.0908 9.226 50.2308 9.36 50.3228 9.54C50.4148 9.716 50.4608 9.944 50.4608 10.224V11.664C50.4608 11.788 50.4308 11.884 50.3708 11.952C50.3108 12.016 50.2248 12.048 50.1128 12.048C50.0008 12.048 49.9128 12.016 49.8488 11.952C49.7888 11.884 49.7588 11.788 49.7588 11.664V11.376H49.8068C49.7788 11.516 49.7228 11.638 49.6388 11.742C49.5588 11.842 49.4568 11.92 49.3328 11.976C49.2088 12.032 49.0668 12.06 48.9068 12.06ZM51.9367 13.128C51.8487 13.128 51.7767 13.104 51.7207 13.056C51.6647 13.012 51.6307 12.952 51.6187 12.876C51.6107 12.8 51.6247 12.72 51.6607 12.636L52.0687 11.73V12.042L50.9767 9.516C50.9407 9.428 50.9287 9.346 50.9407 9.27C50.9527 9.194 50.9887 9.134 51.0487 9.09C51.1127 9.042 51.1987 9.018 51.3067 9.018C51.3987 9.018 51.4727 9.04 51.5287 9.084C51.5847 9.124 51.6347 9.202 51.6787 9.318L52.4887 11.34H52.3087L53.1367 9.312C53.1807 9.2 53.2327 9.124 53.2927 9.084C53.3527 9.04 53.4327 9.018 53.5327 9.018C53.6207 9.018 53.6907 9.042 53.7427 9.09C53.7947 9.134 53.8267 9.194 53.8387 9.27C53.8507 9.342 53.8367 9.422 53.7967 9.51L52.3387 12.84C52.2867 12.952 52.2307 13.028 52.1707 13.068C52.1107 13.108 52.0327 13.128 51.9367 13.128Z" fill="white"/>
</svg>
