<svg width="12" height="12" viewBox="0 0 12 12" fill="none" xmlns="http://www.w3.org/2000/svg">
<path d="M9 9C10.6569 7.34315 10.6569 4.65685 9 3C7.34315 1.34315 4.65685 1.34315 3 3C1.34315 4.65685 1.34315 7.34315 3 9C4.65685 10.6569 7.34315 10.6569 9 9Z" fill="#FEE475"/>
<path d="M8.92218 8.92328C10.5367 7.3088 10.5367 4.6912 8.92218 3.07672C7.3077 1.46224 4.69011 1.46224 3.07562 3.07672C1.46114 4.6912 1.46114 7.3088 3.07562 8.92328C4.69011 10.5378 7.3077 10.5378 8.92218 8.92328Z" fill="#FED425"/>
<g style="mix-blend-mode:soft-light">
<path d="M8.93216 3.08545L3.08594 8.93167C3.47775 9.32129 3.94734 9.63191 4.4691 9.84013L9.84061 4.46862C9.6324 3.94685 9.32177 3.47702 8.93216 3.08545Z" fill="white"/>
</g>
<g style="mix-blend-mode:soft-light">
<path d="M10.0315 6.92065L6.92188 10.0303C8.46572 9.67919 9.68016 8.4645 10.0315 6.92065Z" fill="white"/>
</g>
<g style="mix-blend-mode:soft-light">
<path d="M3.97028 2.39913L2.39961 3.96979C2.2265 4.27602 2.0907 4.60615 2 4.95456L4.95505 1.99951C4.60664 2.09021 4.27651 2.22602 3.97028 2.39913Z" fill="white"/>
</g>
<g style="mix-blend-mode:soft-light">
<path d="M8.38637 2.62573L2.625 8.3871C2.69205 8.48195 2.76276 8.57386 2.83761 8.66261L8.66164 2.83858C8.57289 2.76398 8.48097 2.69327 8.38613 2.62598L8.38637 2.62573Z" fill="white"/>
</g>
<g style="mix-blend-mode:soft-light">
<path d="M6.08146 9.07234C7.73584 9.07234 9.07698 7.7312 9.07698 6.07682C9.07698 4.42244 7.73584 3.0813 6.08146 3.0813C4.42708 3.0813 3.08594 4.42244 3.08594 6.07682C3.08594 7.7312 4.42708 9.07234 6.08146 9.07234Z" fill="white"/>
</g>
<path d="M8.12009 8.11815C9.28991 6.94833 9.28991 5.05167 8.12009 3.88185C6.95026 2.71202 5.0536 2.71202 3.88378 3.88185C2.71395 5.05167 2.71395 6.94833 3.88378 8.11815C5.0536 9.28798 6.95026 9.28798 8.12009 8.11815Z" fill="#FEB724"/>
<path d="M3.16653 6.16303C3.16653 4.50874 4.50776 3.16751 6.16205 3.16751C6.94787 3.16751 7.66274 3.47057 8.19694 3.96552C7.64982 3.375 6.8679 3.00488 5.99943 3.00488C4.34514 3.00488 3.00391 4.34611 3.00391 6.0004C3.00391 6.86888 3.37402 7.65079 3.96454 8.19792C3.46959 7.66347 3.16653 6.94885 3.16653 6.16303Z" fill="#FB9D12"/>
<g style="mix-blend-mode:soft-light">
<path d="M6.0007 1.92019C8.31646 1.92019 10.1977 3.77612 10.2411 6.0814C10.2416 6.05434 10.2431 6.02727 10.2431 5.99996C10.2431 3.65689 8.34352 1.75732 6.00045 1.75732C3.65738 1.75732 1.75781 3.65689 1.75781 5.99996C1.75781 6.02727 1.75928 6.05409 1.75976 6.0814C1.80341 3.77588 3.68445 1.92019 6.00021 1.92019H6.0007Z" fill="white"/>
</g>
</svg>
