<svg width="8" height="8" viewBox="0 0 8 8" fill="none" xmlns="http://www.w3.org/2000/svg">
<path d="M3.12616 0L0.675846 1.46429L0 2.63491V5.36454L0.675846 6.53543L3.12616 7.99999H4.47812L6.92816 6.59714L7.60401 5.42625V2.60676L6.92816 1.43587L4.47812 0H3.12616Z" fill="#A54998"/>
<path d="M6.25192 5.41463L3.80161 6.82911L1.35156 5.41463V2.58538L3.80161 1.1709L6.25192 2.58538V5.41463Z" fill="#FF80F9"/>
<path d="M3.80085 1.17089L3.125 0H4.47696L3.80085 1.17089Z" fill="#FF80F9"/>
<path d="M1.35196 2.63497H0L0.675846 1.46436L1.35196 2.63497Z" fill="#FF80F9"/>
<path d="M1.35196 5.3645L0.675846 6.53539L0 5.3645H1.35196Z" fill="#FF80F9"/>
<path d="M3.80085 6.8291L4.47696 7.99999H3.125L3.80085 6.8291Z" fill="#CE5BBE"/>
<path d="M6.25391 5.42627H7.6056L6.92975 6.59716L6.25391 5.42627Z" fill="#CE5BBE"/>
<path opacity="0.5" d="M6.25391 5.42627H7.6056L6.92975 6.59716L6.25391 5.42627Z" fill="#68297C"/>
<path d="M6.25391 2.60692L6.92975 1.43604L7.6056 2.60692H6.25391Z" fill="#CE5BBE"/>
<path d="M0.675781 1.46436L1.3519 2.63497L1.4718 2.51615L0.675781 1.46436Z" fill="white"/>
<path d="M0 5.36461L1.35196 5.41468V5.2439L0 5.36461Z" fill="white"/>
<path opacity="0.5" d="M1.31641 5.42643L3.91044 4.11182L3.80218 6.82927L1.31641 5.42643Z" fill="#68297C"/>
<path d="M1.56782 5.41463V2.58538L3.90987 1.23315L3.80161 1.1709L1.35156 2.58538V5.41463L3.80161 6.82911L3.90987 6.76686L1.56782 5.41463Z" fill="white"/>
<path opacity="0.5" d="M5.21773 6.01187L3.91016 4.11182L6.2522 5.42643L5.21773 6.01187Z" fill="#68297C"/>
<path opacity="0.5" d="M6.2522 2.60677L4.2225 2.98732L3.91016 1.23315L6.2522 2.60677Z" fill="#68297C"/>
<path opacity="0.4" d="M1.35156 3.99982L5.1966 1.97607L6.25192 2.60672L1.97328 5.79567L1.35156 5.41458V3.99982Z" fill="white"/>
<path opacity="0.4" d="M3.02734 6.38682L6.25365 3.12695V5.42624L3.80333 6.82908L3.02734 6.38682Z" fill="white"/>
<path d="M0 4.45682V2.63525H1.35196C1.35196 2.63525 1.03664 2.63877 0.575159 3.25886C0.113949 3.87841 0 4.45682 0 4.45682Z" fill="#FF80F9"/>
<path opacity="0.5" d="M7.20853 5.42621C7.20853 5.42621 6.87697 5.24487 6.76167 4.53275C6.64637 3.82064 7.09323 2.60645 7.09323 2.60645H6.25391V5.42594H7.20853V5.42621Z" fill="#68297C"/>
<path opacity="0.5" d="M4.47663 8.00001L3.80078 6.82912L6.25082 5.42627L6.67225 6.15598C6.67225 6.15598 6.39834 5.79572 5.69894 6.14163C4.59626 6.68729 4.47663 7.99973 4.47663 7.99973V8.00001Z" fill="#68297C"/>
<path opacity="0.5" d="M4.3256 0.261719C4.3256 0.261719 4.26443 0.440086 4.55295 0.962736C4.84121 1.48539 5.80477 2.34014 5.80477 2.34014L3.80078 1.17088L4.3256 0.261719Z" fill="#68297C"/>
<path d="M3.125 0L3.7072 1.3498L3.90911 1.23314L3.125 0Z" fill="white"/>
<path opacity="0.7" d="M6.25219 5.42643H6.51474L6.25219 2.60693C6.25219 2.60693 6.17695 5.42643 6.25219 5.42643Z" fill="#68297C"/>
<path d="M3.80078 6.82912L6.36559 5.62494L6.25109 5.42627L3.80078 6.82912Z" fill="#68297C"/>
<path opacity="0.1" d="M7.59725 1.5168C7.54338 1.94986 7.14876 2.25706 6.71597 2.2032C6.28291 2.14934 5.9757 1.75471 6.02957 1.32192C6.08343 0.888863 6.47805 0.58166 6.91084 0.635522C7.34363 0.689384 7.65111 1.08401 7.59725 1.5168Z" fill="white"/>
<path opacity="0.2" d="M7.46267 1.46917C7.42288 1.78882 7.13164 2.01564 6.81199 1.97585C6.49234 1.93606 6.26552 1.64483 6.30531 1.32517C6.3451 1.00552 6.63633 0.778706 6.95598 0.818493C7.27564 0.858281 7.50245 1.14951 7.46267 1.46917Z" fill="white"/>
<path opacity="0.7" d="M6.93288 1.00041C6.88633 1.1731 6.88362 1.39748 6.56641 1.38503C6.6541 1.43997 6.75316 1.49058 6.80703 1.58586C6.85493 1.67057 6.88579 1.80672 6.88362 1.90253C6.91394 1.80239 6.90203 1.70387 6.97836 1.60751C7.03519 1.53551 7.12181 1.49085 7.21275 1.49167C7.11937 1.42373 7.03113 1.42156 6.98512 1.29408C6.96753 1.24536 6.9521 1.19475 6.94371 1.14549C6.93505 1.09433 6.94967 1.01882 6.92206 0.97876L6.93288 1.00068V1.00041Z" fill="white"/>
<path d="M7.00403 1.42143C6.97967 1.34727 6.95369 1.35593 6.93095 1.3876C6.81755 1.33401 6.83406 1.69914 6.96614 1.60684C7.0108 1.57571 7.01919 1.46745 7.00403 1.42143Z" fill="white"/>
<path d="M0.675781 1.46429L1.45286 2.51608L3.65795 1.23314L3.12609 0L0.675781 1.46429Z" fill="#FF80F9"/>
<path opacity="0.4" d="M1.3519 2.3794C1.3519 2.3794 1.37003 2.02429 1.72217 1.6321C2.0743 1.24018 3.23896 0.261731 3.23896 0.261731L3.12609 0L0.675781 1.46429L1.35163 2.3794H1.3519Z" fill="white"/>
<path opacity="0.5" d="M1.32031 4.23549L5.69991 2.27832L6.06017 2.49187L1.45267 5.18443L1.32031 4.23549Z" fill="white"/>
<path opacity="0.1" d="M2.23579 5.41074C2.16407 5.98807 1.6379 6.39812 1.0603 6.32612C0.482978 6.2544 0.0729232 5.72823 0.14492 5.15063C0.216645 4.57331 0.742815 4.16326 1.32041 4.23525C1.89773 4.30698 2.30779 4.83315 2.23579 5.41074Z" fill="white"/>
<path opacity="0.2" d="M2.05353 5.34717C2.00048 5.77346 1.61208 6.07607 1.18579 6.02302C0.759492 5.96997 0.456891 5.58156 0.509941 5.15527C0.562991 4.72897 0.951393 4.42637 1.37769 4.47942C1.80398 4.53247 2.10658 4.92088 2.05353 5.34717Z" fill="white"/>
<path opacity="0.7" d="M1.34792 4.72183C1.28567 4.95217 1.28215 5.25125 0.859375 5.23501C0.976301 5.30809 1.10839 5.37603 1.18038 5.5027C1.24453 5.61556 1.28513 5.79718 1.28269 5.92493C1.32329 5.79122 1.30732 5.65995 1.40909 5.53139C1.48488 5.4353 1.60045 5.37575 1.72171 5.37684C1.5972 5.28616 1.47919 5.28319 1.41802 5.11321C1.39475 5.04825 1.37391 4.98086 1.36254 4.91509C1.3509 4.84688 1.37066 4.74592 1.33358 4.69287L1.34819 4.7221L1.34792 4.72183Z" fill="white"/>
<path d="M1.44417 5.28378C1.41169 5.18499 1.37678 5.19636 1.34673 5.23858C1.1957 5.16712 1.21736 5.65405 1.39356 5.5309C1.4531 5.48921 1.4642 5.34495 1.44417 5.28378Z" fill="white"/>
</svg>
