<svg width="13" height="13" viewBox="0 0 13 13" fill="none" xmlns="http://www.w3.org/2000/svg">
<path d="M8.0029 0.000732776C7.52194 0.000732776 7.05124 0.17303 6.67732 0.485364L5.13031 1.77943L3.18738 1.23834C3.00335 1.18702 2.8142 1.16135 2.62577 1.16135C1.94025 1.16135 1.29945 1.50375 0.91233 2.0771C0.527411 2.64678 0.451158 3.36896 0.708504 4.00902L1.46075 5.8801L0.346313 7.56054C-0.0767315 8.19768 -0.114856 9.01224 0.246602 9.68603C0.608792 10.3606 1.30678 10.7792 2.06928 10.7792C2.11694 10.7792 2.16533 10.7777 2.21446 10.7741L4.2263 10.6362L5.48004 12.2155C5.87595 12.7141 6.46616 13 7.0989 13C8.0535 13 8.88199 12.3548 9.11367 11.431L9.6049 9.47487L11.4943 8.77029C12.2392 8.49241 12.7517 7.82889 12.8324 7.03852C12.913 6.24742 12.5449 5.49445 11.8712 5.07213L10.1629 4.00096L10.0771 1.98618C10.0294 0.872482 9.11807 0 8.00144 0L8.0029 0.000732776Z" fill="white"/>
<path d="M7.43023 1.385L5.77325 2.77071C5.54596 2.9606 5.24022 3.02659 4.95502 2.9474L2.87352 2.36819C2.15501 2.16803 1.51934 2.87848 1.79722 3.5706L2.60298 5.57512C2.71369 5.85006 2.68143 6.16166 2.51793 6.40801L1.32358 8.20796C0.911536 8.8297 1.39103 9.65379 2.13448 9.6032L4.29003 9.45583C4.5855 9.43531 4.87217 9.56215 5.0562 9.79383L6.39938 11.486C6.86275 12.0704 7.79536 11.8687 7.97645 11.1458L8.50214 9.05039C8.57399 8.76298 8.78295 8.52983 9.06082 8.42645L11.0851 7.67201C11.7839 7.41173 11.8806 6.463 11.2486 6.06635L9.41861 4.91892C9.16787 4.76129 9.01023 4.49074 8.99777 4.19527L8.90539 2.03679C8.87386 1.29188 8.00138 0.906231 7.4295 1.385H7.43023Z" fill="url(#paint0_linear_3243_75)"/>
<path d="M9.07638 4.50223C9.03606 4.40545 9.006 4.30354 9.0016 4.19576L8.90922 2.03728C8.87769 1.29237 8.00521 0.906719 7.43333 1.38549L5.77634 2.77119C5.54906 2.96109 5.24332 3.02707 4.95811 2.94789L2.87735 2.36868C2.15884 2.16852 1.52317 2.87897 1.80104 3.57109L2.60681 5.5756C2.63027 5.63353 2.64347 5.69291 2.65446 5.75304C3.34292 6.01845 4.0871 6.16948 4.8694 6.16948C6.49779 6.16948 7.97515 5.53381 9.07712 4.50223H9.07638Z" fill="white"/>
<path d="M3.14102 3.24653C3.14102 3.48188 2.95039 3.67251 2.71504 3.67251C2.47969 3.67251 2.28906 3.48188 2.28906 3.24653C2.28906 3.01118 2.47969 2.82056 2.71504 2.82056C2.95039 2.82056 3.14102 3.01118 3.14102 3.24653Z" fill="#F9DF8C"/>
<path d="M3.79887 3.74203C3.95315 3.74203 4.07821 3.61697 4.07821 3.46269C4.07821 3.30841 3.95315 3.18335 3.79887 3.18335C3.6446 3.18335 3.51953 3.30841 3.51953 3.46269C3.51953 3.61697 3.6446 3.74203 3.79887 3.74203Z" fill="#F9DF8C"/>
<path d="M7.10409 12.1212C6.74483 12.1212 6.4039 11.9592 6.17368 11.6695L4.8305 9.97737C4.70659 9.8212 4.51377 9.73542 4.31434 9.74935L2.15879 9.89672C1.70202 9.92751 1.27605 9.70169 1.04583 9.30651C0.81561 8.91133 0.830275 8.42889 1.08322 8.04764L2.27757 6.24769C2.38755 6.08125 2.40954 5.87157 2.33476 5.68607L1.529 3.68156C1.35817 3.25705 1.44175 2.78195 1.74675 2.44102C2.05175 2.10009 2.51512 1.96445 2.95576 2.08689L5.03652 2.66611C5.22862 2.71963 5.43537 2.6749 5.58861 2.54733L7.24559 1.16162C7.59679 0.868351 8.07482 0.800898 8.49273 0.985659C8.91138 1.17042 9.18339 1.56927 9.20245 2.02604L9.29483 4.18452C9.30363 4.38394 9.40921 4.56651 9.57857 4.67282L11.4086 5.82024C11.7964 6.06292 12.0083 6.49697 11.9614 6.95227C11.9152 7.40758 11.6197 7.78956 11.1916 7.9494L9.16726 8.70384C8.9803 8.77349 8.83953 8.93112 8.79114 9.12468L8.26545 11.2201C8.154 11.6637 7.80721 11.9995 7.35997 12.0955C7.27492 12.1139 7.18914 12.1227 7.10482 12.1227L7.10409 12.1212ZM4.3554 9.16134C4.71759 9.16134 5.06219 9.32631 5.28947 9.61298L6.63266 11.3052C6.77929 11.4899 7.00511 11.5706 7.23533 11.5207C7.46628 11.4709 7.63784 11.3044 7.69577 11.0757L8.22145 8.98024C8.31677 8.59899 8.59391 8.29032 8.96197 8.15249L10.9863 7.39805C11.2077 7.31593 11.3536 7.12604 11.3778 6.89142C11.402 6.6568 11.2964 6.44125 11.0963 6.31587L9.26623 5.16845C8.93337 4.95949 8.72515 4.60097 8.70829 4.20872L8.6159 2.05024C8.60564 1.81415 8.47074 1.61693 8.25518 1.52161C8.03963 1.4263 7.80208 1.46003 7.62098 1.61106L5.964 2.99677C5.66266 3.24898 5.25721 3.33623 4.87889 3.23065L2.79813 2.65144C2.57084 2.58839 2.34062 2.65511 2.18372 2.83107C2.02609 3.00703 1.98503 3.24312 2.07301 3.46161L2.87878 5.46612C3.02541 5.83051 2.98289 6.24329 2.76587 6.57102L1.57152 8.37097C1.44102 8.56747 1.43368 8.80722 1.55246 9.01104C1.67123 9.21486 1.88239 9.32704 2.11774 9.31091L4.27329 9.16354C4.30041 9.16134 4.32754 9.16061 4.35467 9.16061L4.3554 9.16134Z" fill="#C97E11"/>
<defs>
<linearGradient id="paint0_linear_3243_75" x1="6.42211" y1="11.8269" x2="6.42211" y2="1.17384" gradientUnits="userSpaceOnUse">
<stop stop-color="#F39C12"/>
<stop offset="0.08" stop-color="#F29F11"/>
<stop offset="0.66" stop-color="#F1BA0F"/>
<stop offset="1" stop-color="#F1C40F"/>
</linearGradient>
</defs>
</svg>
