<svg width="87" height="19" viewBox="0 0 87 19" fill="none" xmlns="http://www.w3.org/2000/svg">
<g id="Group 730">
<path id="Rectangle 175" d="M0 0H80.8027C81.5898 0 82.3776 0.169665 83.0456 0.585988C87.0538 3.0843 87.3504 6.74679 83.311 16.0897C82.5398 17.8734 80.7576 19 78.8143 19H0C5.16045 11.3783 5.19473 7.078 0 0Z" fill="#F5ECAB"/>
<path id="Rectangle 176" d="M2 1H79.8352C80.5733 1 81.3124 1.14861 81.9516 1.5178C85.7944 3.73746 86.1073 6.98219 82.3004 15.2192C81.5069 16.9361 79.762 18 77.8706 18H2C6.22495 11.2219 6.28275 7.3798 2 1Z" fill="url(#paint0_linear_3153_6071)"/>
</g>
<defs>
<linearGradient id="paint0_linear_3153_6071" x1="40.5" y1="-2" x2="57" y2="25" gradientUnits="userSpaceOnUse">
<stop stop-color="#4C74D7"/>
<stop offset="1" stop-color="#5D9BD5"/>
</linearGradient>
</defs>
</svg>
