<svg width="20" height="20" viewBox="0 0 20 20" fill="none" xmlns="http://www.w3.org/2000/svg">
<path d="M17.2008 10V19H2.80078V10" stroke="#FBE389" stroke-width="2" stroke-linecap="round" stroke-linejoin="round"/>
<path d="M19 5.5H1V10H19V5.5Z" stroke="#FBE389" stroke-width="2" stroke-linecap="round" stroke-linejoin="round"/>
<path d="M10 19V5.5" stroke="#FBE389" stroke-width="2" stroke-linecap="round" stroke-linejoin="round"/>
<path d="M9.99922 5.5H5.94922C5.35248 5.5 4.78019 5.26295 4.35823 4.84099C3.93627 4.41903 3.69922 3.84674 3.69922 3.25C3.69922 2.65326 3.93627 2.08097 4.35823 1.65901C4.78019 1.23705 5.35248 1 5.94922 1C9.09922 1 9.99922 5.5 9.99922 5.5Z" stroke="#FBE389" stroke-width="2" stroke-linecap="round" stroke-linejoin="round"/>
<path d="M10 5.5H14.05C14.6467 5.5 15.219 5.26295 15.641 4.84099C16.0629 4.41903 16.3 3.84674 16.3 3.25C16.3 2.65326 16.0629 2.08097 15.641 1.65901C15.219 1.23705 14.6467 1 14.05 1C10.9 1 10 5.5 10 5.5Z" stroke="#FBE389" stroke-width="2" stroke-linecap="round" stroke-linejoin="round"/>
</svg>
