<svg width="18" height="13" viewBox="0 0 18 13" fill="none" xmlns="http://www.w3.org/2000/svg">
<path d="M17.2048 9.39615C16.9344 7.11334 16.0629 5.2928 14.9424 4.62643C15.9547 4.19476 16.6109 3.09162 16.3506 1.87623C16.1568 0.972088 15.424 0.244486 14.5199 0.0546766C12.9616 -0.271877 11.5891 0.908818 11.5891 2.40994C11.5891 3.40593 12.1932 4.26008 13.0545 4.62745C12.2065 5.13157 11.5023 6.29593 11.0921 7.82053C10.688 6.89699 10.1563 6.19899 9.55119 5.83876C10.5635 5.40709 11.2197 4.30396 10.9594 3.08856C10.7656 2.18442 10.0329 1.45682 9.12871 1.26701C7.57044 0.940453 6.19789 2.12115 6.19789 3.62227C6.19789 4.61826 6.80202 5.4724 7.6633 5.83978C7.05816 6.20001 6.52751 6.89801 6.12238 7.82155C5.71214 6.29695 5.00801 5.13259 4.15999 4.62847C5.17231 4.19681 5.82848 3.09367 5.56825 1.87827C5.37436 0.974129 4.64166 0.246526 3.73751 0.0567172C2.17924 -0.269836 0.806695 0.910859 0.806695 2.41199C0.806695 3.40797 1.41082 4.26212 2.2721 4.62949C1.1506 5.29586 0.280127 7.1164 0.0096993 9.39921C-0.0852053 10.2003 0.528103 10.9095 1.33428 10.9095H5.09883C5.2019 10.9095 5.30191 10.8973 5.39783 10.8748C5.44886 11.5606 6.01012 12.1208 6.72548 12.1208H10.49C11.2064 12.1208 11.7666 11.5616 11.8177 10.8748C11.9136 10.8963 12.0136 10.9095 12.1167 10.9095H15.8812C16.6884 10.9095 17.3007 10.2003 17.2058 9.39921L17.2048 9.39615Z" fill="#FBE389"/>
</svg>
