<svg version="1.0" xmlns="http://www.w3.org/2000/svg"
width="20" height="20" viewBox="0 0 64.000000 64.000000"
preserveAspectRatio="xMidYMid meet">
<g transform="translate(0.000000,64.000000) scale(0.100000,-0.100000)"
fill="#FFFFFF" stroke="none">
<path d="M485 620 c-3 -11 -12 -20 -19 -20 -7 0 -21 -6 -31 -14 -19 -14 -19
-15 -1 -35 11 -12 16 -29 13 -40 -7 -29 16 -45 42 -31 15 7 27 8 40 1 22 -12
45 7 36 31 -3 8 1 21 10 28 23 19 18 47 -10 54 -13 3 -29 15 -35 26 -14 26
-37 26 -45 0z m69 -44 c17 -6 17 -8 3 -24 -10 -11 -14 -27 -10 -40 5 -21 4
-22 -19 -11 -19 8 -31 8 -48 -1 -20 -11 -21 -10 -15 10 4 14 1 28 -10 40 -17
19 -16 20 9 30 15 5 29 17 33 26 5 15 8 14 22 -3 9 -11 24 -23 35 -27z"/>
<path d="M294 495 c-9 -14 -24 -25 -34 -25 -23 0 -33 -25 -15 -40 8 -6 15 -26
17 -43 2 -26 7 -31 23 -29 25 4 45 4 70 0 16 -2 21 3 23 29 2 17 9 37 17 43
18 15 8 40 -15 40 -10 0 -25 11 -34 25 -9 14 -21 25 -26 25 -5 0 -17 -11 -26
-25z m36 -15 c0 -6 11 -15 25 -20 26 -10 32 -24 15 -35 -5 -3 -10 -17 -10 -31
0 -22 -3 -23 -20 -14 -14 8 -26 8 -40 0 -17 -9 -20 -8 -20 14 0 14 -4 28 -10
31 -17 11 -11 25 15 35 14 5 25 14 25 20 0 5 5 10 10 10 6 0 10 -5 10 -10z"/>
<path d="M447 423 c-4 -3 -7 -87 -7 -185 l0 -179 -27 3 -28 3 -3 123 -3 122
-59 0 -59 0 -3 -122 -3 -123 -27 -3 c-27 -3 -27 -3 -30 70 l-3 73 -60 0 c-58
0 -60 -1 -63 -27 -2 -16 1 -28 7 -28 6 0 11 9 11 20 0 17 7 20 45 20 l45 0 0
-65 0 -65 -45 0 c-41 0 -45 2 -45 25 0 14 -4 25 -10 25 -5 0 -10 -11 -10 -25
0 -22 -4 -25 -36 -25 -33 0 -35 -2 -32 -27 l3 -28 315 0 315 0 3 28 c3 25 1
27 -32 27 l-36 0 -2 183 -3 182 -27 3 c-16 2 -28 -1 -28 -7 0 -6 9 -11 20 -11
19 0 20 -7 20 -175 l0 -175 -45 0 -45 0 0 175 c0 110 4 175 10 175 6 0 10 5
10 10 0 11 -23 14 -33 3z m-87 -248 l0 -115 -40 0 -40 0 0 115 0 115 40 0 40
0 0 -115z m260 -145 c0 -6 -107 -10 -300 -10 -193 0 -300 4 -300 10 0 6 107
10 300 10 193 0 300 -4 300 -10z"/>
<path d="M110 380 c-6 -11 -20 -20 -31 -20 -25 0 -35 -26 -18 -47 8 -9 14 -28
14 -42 0 -25 3 -26 58 -27 56 -2 62 2 58 34 -1 8 5 22 15 33 20 22 12 49 -15
49 -11 0 -25 9 -31 20 -6 11 -17 20 -25 20 -8 0 -19 -9 -25 -20z m73 -40 c19
0 19 -1 2 -20 -9 -10 -15 -28 -13 -38 5 -16 0 -19 -39 -18 -36 1 -43 4 -40 18
3 10 -1 22 -9 29 -20 16 -17 29 6 29 10 0 25 10 31 22 l12 22 15 -22 c8 -12
24 -22 35 -22z"/>
</g>
</svg>
