<svg width="15" height="15" viewBox="0 0 15 15" fill="none" xmlns="http://www.w3.org/2000/svg">
<path d="M13.9802 5.80982H12.8896C12.789 5.48819 12.6575 5.18055 12.5037 4.88689L13.2774 4.11311C13.6754 3.71504 13.6754 3.06899 13.2774 2.66998L12.3294 1.72188C11.9314 1.3238 11.2854 1.3238 10.8865 1.72188L10.1128 2.49565C9.81916 2.34183 9.51156 2.21038 9.18997 2.1097V1.01989C9.18997 0.455873 8.73322 0 8.17021 0H6.82979C6.26678 0 5.81003 0.456806 5.81003 1.01989V2.1097C5.48844 2.21038 5.18083 2.34183 4.88721 2.49565L4.11353 1.72188C3.71551 1.3238 3.06954 1.3238 2.67058 1.72188L1.7226 2.66998C1.32457 3.06805 1.32457 3.71411 1.7226 4.11311L2.49627 4.88689C2.34247 5.18055 2.21104 5.48819 2.11036 5.80982H1.01976C0.456749 5.80982 0 6.26662 0 6.82971V8.17029C0 8.73431 0.456749 9.19018 1.01976 9.19018H2.11036C2.21104 9.51181 2.34247 9.81945 2.49627 10.1131L1.7226 10.8869C1.32457 11.285 1.32457 11.931 1.7226 12.33L2.67058 13.2781C3.06861 13.6762 3.71458 13.6762 4.11353 13.2781L4.88721 12.5044C5.18083 12.6582 5.48844 12.7896 5.81003 12.8903V13.9801C5.81003 14.5432 6.26678 15 6.82979 15H8.17021C8.73322 15 9.18997 14.5432 9.18997 13.9801V12.8903C9.51156 12.7896 9.81916 12.6582 10.1128 12.5044L10.8865 13.2781C11.2845 13.6762 11.9305 13.6762 12.3294 13.2781L13.2774 12.33C13.6754 11.9319 13.6754 11.2859 13.2774 10.8869L12.5037 10.1131C12.6575 9.81945 12.789 9.51181 12.8896 9.19018H13.9802C14.5433 9.19018 15 8.73337 15 8.17029V6.82971C15 6.26569 14.5433 5.80982 13.9802 5.80982ZM7.5 9.62554C6.32643 9.62554 5.37565 8.67464 5.37565 7.50093C5.37565 6.32722 6.32643 5.37632 7.5 5.37632C8.67356 5.37632 9.62435 6.32722 9.62435 7.50093C9.62435 8.67464 8.67356 9.62554 7.5 9.62554Z" fill="#FBE389"/>
</svg>
