<svg width="10" height="10" viewBox="0 0 10 10" fill="none" xmlns="http://www.w3.org/2000/svg">
<path d="M7.5 7.5C8.88071 6.11929 8.88071 3.88071 7.5 2.5C6.11929 1.11929 3.88071 1.11929 2.5 2.5C1.11929 3.88071 1.11929 6.11929 2.5 7.5C3.88071 8.88071 6.11929 8.88071 7.5 7.5Z" fill="#FEE475"/>
<path d="M7.43711 7.43607C8.78251 6.09066 8.78251 3.90934 7.43711 2.56393C6.0917 1.21853 3.91038 1.21853 2.56497 2.56393C1.21957 3.90934 1.21957 6.09066 2.56497 7.43607C3.91038 8.78147 6.0917 8.78147 7.43711 7.43607Z" fill="#FED425"/>
<g style="mix-blend-mode:soft-light">
<path d="M7.44216 2.57129L2.57031 7.44314C2.89682 7.76782 3.28815 8.02667 3.72295 8.20019L8.19921 3.72393C8.02569 3.28912 7.76684 2.8976 7.44216 2.57129Z" fill="white"/>
</g>
<g style="mix-blend-mode:soft-light">
<path d="M8.35698 5.76709L5.76562 8.35845C7.05216 8.06587 8.0642 7.05362 8.35698 5.76709Z" fill="white"/>
</g>
<g style="mix-blend-mode:soft-light">
<path d="M3.30596 1.99903L1.99707 3.30791C1.85282 3.56311 1.73965 3.83821 1.66406 4.12856L4.1266 1.66602C3.83626 1.7416 3.56115 1.85477 3.30596 1.99903Z" fill="white"/>
</g>
<g style="mix-blend-mode:soft-light">
<path d="M6.98864 2.18799L2.1875 6.98913C2.24337 7.06817 2.3023 7.14477 2.36467 7.21872L7.21803 2.36536C7.14407 2.30319 7.06747 2.24427 6.98844 2.18819L6.98864 2.18799Z" fill="white"/>
</g>
<g style="mix-blend-mode:soft-light">
<path d="M5.06658 7.56016C6.44523 7.56016 7.56285 6.44255 7.56285 5.0639C7.56285 3.68524 6.44523 2.56763 5.06658 2.56763C3.68793 2.56763 2.57031 3.68524 2.57031 5.0639C2.57031 6.44255 3.68793 7.56016 5.06658 7.56016Z" fill="white"/>
</g>
<path d="M6.76414 6.76513C7.73899 5.79028 7.73899 4.20972 6.76414 3.23487C5.78928 2.26002 4.20873 2.26002 3.23388 3.23487C2.25902 4.20973 2.25902 5.79027 3.23388 6.76513C4.20873 7.73998 5.78928 7.73998 6.76414 6.76513Z" fill="#FEB724"/>
<path d="M2.63943 5.13618C2.63943 3.75761 3.75712 2.63992 5.1357 2.63992C5.79054 2.63992 6.38627 2.89247 6.83143 3.30492C6.3755 2.81282 5.7239 2.50439 5.00017 2.50439C3.6216 2.50439 2.50391 3.62209 2.50391 5.00066C2.50391 5.72439 2.81233 6.37599 3.30444 6.83192C2.89198 6.38655 2.63943 5.79103 2.63943 5.13618Z" fill="#FB9D12"/>
<g style="mix-blend-mode:soft-light">
<path d="M5.00058 1.60008C6.93038 1.60008 8.49812 3.14669 8.53429 5.06775C8.53469 5.0452 8.53591 5.02265 8.53591 4.99989C8.53591 3.04733 6.95294 1.46436 5.00038 1.46436C3.04782 1.46436 1.46484 3.04733 1.46484 4.99989C1.46484 5.02265 1.46606 5.045 1.46647 5.06775C1.50284 3.14648 3.07037 1.60008 5.00017 1.60008H5.00058Z" fill="white"/>
</g>
</svg>
