<svg width="11" height="9" viewBox="0 0 11 9" fill="none" xmlns="http://www.w3.org/2000/svg">
<path d="M7.22222 8.00008V7.2223C7.22222 6.80974 7.05833 6.41408 6.76661 6.12236C6.47489 5.83064 6.07923 5.66675 5.66667 5.66675H2.55556C2.143 5.66675 1.74733 5.83064 1.45561 6.12236C1.16389 6.41408 1 6.80974 1 7.2223V8.00008" stroke="white" stroke-linecap="round" stroke-linejoin="round"/>
<path d="M4.11024 4.11111C4.96935 4.11111 5.6658 3.41467 5.6658 2.55556C5.6658 1.69645 4.96935 1 4.11024 1C3.25113 1 2.55469 1.69645 2.55469 2.55556C2.55469 3.41467 3.25113 4.11111 4.11024 4.11111Z" stroke="white" stroke-linecap="round" stroke-linejoin="round"/>
<path d="M9.55729 7.99982V7.22204C9.55703 6.87738 9.44232 6.54256 9.23116 6.27016C9.01999 5.99776 8.72434 5.80321 8.39062 5.71704" stroke="white" stroke-linecap="round" stroke-linejoin="round"/>
<path d="M6.83203 1.05054C7.16664 1.13621 7.46321 1.33081 7.675 1.60366C7.88679 1.87651 8.00175 2.21208 8.00175 2.55748C8.00175 2.90288 7.88679 3.23846 7.675 3.51131C7.46321 3.78415 7.16664 3.97875 6.83203 4.06443" stroke="white" stroke-linecap="round" stroke-linejoin="round"/>
</svg>
