<svg width="5" height="5" viewBox="0 0 5 5" fill="none" xmlns="http://www.w3.org/2000/svg">
<path d="M2.5 2C2.77614 2 3 1.77614 3 1.5C3 1.22386 2.77614 1 2.5 1C2.22386 1 2 1.22386 2 1.5C2 1.77614 2.22386 2 2.5 2Z" fill="#76726F" stroke="#76726F" stroke-width="0.5" stroke-linecap="round" stroke-linejoin="round"/>
<path d="M3.81729 4.21875H1.15234" stroke="#76726F" stroke-width="0.5" stroke-linecap="round" stroke-linejoin="round"/>
<path d="M1.12891 4.21875C1.1998 3.90805 1.37409 3.63063 1.62324 3.43192C1.87239 3.23321 2.18163 3.125 2.50031 3.125C2.81899 3.125 3.12823 3.23321 3.37738 3.43192C3.62653 3.63063 3.80082 3.90805 3.87171 4.21875" fill="#76726F"/>
<path d="M1.12891 4.21875C1.1998 3.90805 1.37409 3.63063 1.62324 3.43192C1.87239 3.23321 2.18162 3.125 2.50031 3.125C2.81899 3.125 3.12823 3.23321 3.37738 3.43192C3.62653 3.63063 3.80082 3.90805 3.87171 4.21875" stroke="#76726F" stroke-width="0.5" stroke-linecap="round" stroke-linejoin="round"/>
</svg>
