<svg width="12" height="11" viewBox="0 0 12 11" fill="none" xmlns="http://www.w3.org/2000/svg">
<path d="M5.18409 0.00656703C2.38116 0.118651 0.250729 2.64151 0.0262846 5.27646C-0.177505 7.67154 0.718343 10.8173 5.74451 10.9947C10.5099 11.163 11.9114 7.29453 11.5751 4.88403C11.1951 2.1593 8.82697 -0.139115 5.18409 0.00656703Z" fill="url(#paint0_linear_3243_402)"/>
<path style="mix-blend-mode:screen" opacity="0.7" d="M5.2992 1.01921C3.01262 1.11064 1.27462 3.16864 1.09176 5.31834C1.0086 6.29516 1.14987 7.42536 1.82431 8.3292C2.49874 9.23303 3.70661 9.91077 5.75662 9.9832C7.70033 10.0518 8.95805 9.2972 9.69554 8.27963C10.433 7.26206 10.6503 5.98149 10.5132 4.99834C10.3581 3.88713 9.79772 2.86268 8.90435 2.13096C8.01125 1.39925 6.78521 0.960273 5.29947 1.01948L5.2992 1.01921Z" fill="url(#paint1_linear_3243_402)"/>
<path d="M5.76003 9.66409C2.1334 9.53603 1.34413 7.36925 1.40994 5.59545C1.41325 5.50595 1.41876 5.41727 1.42619 5.33025C1.59583 3.33339 3.21045 1.42134 5.3351 1.33652C6.7809 1.27869 7.96151 1.72868 8.7998 2.46701C9.56236 3.13896 10.0415 4.04913 10.1787 5.0331C10.4337 6.86005 9.37151 9.79187 5.75975 9.66436L5.76003 9.66409Z" fill="url(#paint2_linear_3243_402)"/>
<path d="M5.7649 9.43096C2.45001 9.31364 1.72848 7.32835 1.78852 5.70299C1.79155 5.62092 1.7965 5.53995 1.80339 5.46009C1.95871 3.63039 3.43453 1.87835 5.3766 1.80069C6.6982 1.74781 7.77746 2.16007 8.5436 2.83644C9.24061 3.45221 9.67876 4.2861 9.80406 5.18745C10.037 6.86156 9.06629 9.54773 5.7649 9.43096Z" fill="url(#paint3_linear_3243_402)"/>
<path style="mix-blend-mode:screen" opacity="0.5" d="M11.476 4.53318C10.9502 1.98388 8.64741 -0.0978001 5.18656 0.0404464C2.40098 0.15198 0.284046 2.65887 0.0612542 5.27729C-0.0180585 6.21032 0.0703421 7.25791 0.508215 8.19754C6.68222 10.6997 10.8869 6.74733 11.476 4.53318Z" fill="url(#paint4_linear_3243_402)"/>
<path style="mix-blend-mode:screen" opacity="0.7" d="M2.66224 2.59428C2.21363 2.9399 1.72784 2.75318 1.60639 2.51965C1.39186 2.10739 1.60639 1.73479 1.90546 1.44507C3.54074 -0.0125732 4.7968 -0.0365323 6.13823 0.0342433C6.80385 0.069218 7.43973 0.2675 7.62397 0.510671C7.86053 0.823515 7.76387 1.47812 6.70609 1.42855C5.2041 1.15536 3.80264 1.39826 2.66251 2.59428H2.66224Z" fill="url(#paint5_radial_3243_402)"/>
<path d="M7.938 4.424C7.938 4.764 7.85 5.076 7.674 5.36C7.498 5.644 7.242 5.876 6.906 6.056C6.57 6.236 6.17 6.342 5.706 6.374L5.448 7.82C5.348 8.376 5.076 8.654 4.632 8.654C4.388 8.654 4.162 8.582 3.954 8.438C3.75 8.294 3.586 8.074 3.462 7.778C3.338 7.482 3.276 7.118 3.276 6.686C3.276 5.874 3.406 5.186 3.666 4.622C3.93 4.054 4.282 3.63 4.722 3.35C5.166 3.066 5.654 2.924 6.186 2.924C6.562 2.924 6.88 2.99 7.14 3.122C7.404 3.254 7.602 3.434 7.734 3.662C7.87 3.886 7.938 4.14 7.938 4.424ZM5.814 5.756C6.634 5.652 7.044 5.226 7.044 4.478C7.044 4.214 6.956 4 6.78 3.836C6.608 3.668 6.34 3.584 5.976 3.584C5.564 3.584 5.204 3.714 4.896 3.974C4.592 4.234 4.356 4.596 4.188 5.06C4.024 5.52 3.942 6.046 3.942 6.638C3.942 6.886 3.966 7.106 4.014 7.298C4.066 7.49 4.13 7.64 4.206 7.748C4.286 7.852 4.362 7.904 4.434 7.904C4.534 7.904 4.61 7.766 4.662 7.49L4.86 6.356C4.704 6.332 4.636 6.322 4.656 6.326C4.536 6.306 4.458 6.27 4.422 6.218C4.386 6.162 4.368 6.092 4.368 6.008C4.368 5.92 4.392 5.85 4.44 5.798C4.492 5.746 4.562 5.72 4.65 5.72C4.69 5.72 4.72 5.722 4.74 5.726C4.836 5.742 4.91 5.752 4.962 5.756C5.014 5.444 5.088 5.026 5.184 4.502C5.208 4.366 5.262 4.27 5.346 4.214C5.434 4.154 5.536 4.124 5.652 4.124C5.784 4.124 5.878 4.15 5.934 4.202C5.994 4.25 6.024 4.328 6.024 4.436C6.024 4.5 6.02 4.552 6.012 4.592L5.814 5.756Z" fill="white"/>
<defs>
<linearGradient id="paint0_linear_3243_402" x1="5.01555" y1="1.87014" x2="6.75355" y2="10.4478" gradientUnits="userSpaceOnUse">
<stop stop-color="#33A4EF"/>
<stop offset="1" stop-color="#005498"/>
</linearGradient>
<linearGradient id="paint1_linear_3243_402" x1="5.81087" y1="9.36935" x2="5.81087" y2="3.43219" gradientUnits="userSpaceOnUse">
<stop stop-color="#33D8F9"/>
<stop offset="1"/>
</linearGradient>
<linearGradient id="paint2_linear_3243_402" x1="6.08334" y1="8.57078" x2="5.74709" y2="5.03889" gradientUnits="userSpaceOnUse">
<stop stop-color="#007FC3"/>
<stop offset="1" stop-color="#005498"/>
</linearGradient>
<linearGradient id="paint3_linear_3243_402" x1="5.17749" y1="2.68001" x2="6.52608" y2="9.36735" gradientUnits="userSpaceOnUse">
<stop stop-color="#38A0D9"/>
<stop offset="1" stop-color="#0060A2"/>
</linearGradient>
<linearGradient id="paint4_linear_3243_402" x1="3.96906" y1="0.911785" x2="6.12923" y2="6.6526" gradientUnits="userSpaceOnUse">
<stop stop-color="#33A4EF"/>
<stop offset="1"/>
</linearGradient>
<radialGradient id="paint5_radial_3243_402" cx="0" cy="0" r="1" gradientUnits="userSpaceOnUse" gradientTransform="translate(4.44044 0.793222) scale(2.48018)">
<stop stop-color="#33D8F9"/>
<stop offset="1"/>
</radialGradient>
</defs>
</svg>
