<svg width="63" height="7" viewBox="0 0 63 7" fill="none" xmlns="http://www.w3.org/2000/svg">
<rect x="0.152344" y="5.15405" width="0.615385" height="1.23077" fill="white"/>
<rect x="1.38281" y="5.15405" width="0.615385" height="1.23077" fill="white"/>
<rect x="2.61328" y="5.15405" width="0.615385" height="1.23077" fill="white"/>
<rect x="3.84375" y="5.15405" width="0.615385" height="1.23077" fill="white"/>
<rect x="5.07422" y="3.30811" width="0.615385" height="3.07692" fill="white"/>
<rect x="6.30469" y="5.15405" width="0.615385" height="1.23077" fill="white"/>
<rect x="7.53516" y="5.15405" width="0.615385" height="1.23077" fill="white"/>
<rect x="8.76953" y="5.15405" width="0.615385" height="1.23077" fill="white"/>
<rect x="10" y="5.15405" width="0.615385" height="1.23077" fill="white"/>
<rect x="11.2305" y="3.30811" width="0.615385" height="3.07692" fill="white"/>
<rect x="12.4609" y="5.15405" width="0.615385" height="1.23077" fill="white"/>
<rect x="13.6914" y="5.15405" width="0.615385" height="1.23077" fill="white"/>
<rect x="14.9219" y="5.15405" width="0.615385" height="1.23077" fill="white"/>
<rect x="16.1523" y="5.15405" width="0.615385" height="1.23077" fill="white"/>
<rect x="17.3828" y="3.30811" width="0.615385" height="3.07692" fill="white"/>
<rect x="18.6133" y="5.15405" width="0.615385" height="1.23077" fill="white"/>
<rect x="19.8438" y="5.15405" width="0.615385" height="1.23077" fill="white"/>
<rect x="21.0742" y="5.15405" width="0.615385" height="1.23077" fill="white"/>
<rect x="22.3047" y="5.15405" width="0.615385" height="1.23077" fill="white"/>
<rect x="23.5352" y="3.30811" width="0.615385" height="3.07692" fill="white"/>
<rect x="24.7695" y="5.15405" width="0.615385" height="1.23077" fill="white"/>
<rect x="26" y="5.15405" width="0.615385" height="1.23077" fill="white"/>
<rect x="27.2305" y="5.15405" width="0.615385" height="1.23077" fill="white"/>
<rect x="28.4609" y="5.15405" width="0.615385" height="1.23077" fill="white"/>
<rect x="29.6914" y="3.30811" width="0.615385" height="3.07692" fill="white"/>
<rect x="30.9219" y="5.15405" width="0.615385" height="1.23077" fill="white"/>
<rect x="31.5352" y="1.46167" width="0.615385" height="4.92308" fill="#811606"/>
<rect x="32.1523" y="0.846436" width="0.615385" height="5.53846" fill="#811606"/>
<rect x="32.7695" y="0.846436" width="0.615385" height="5.53846" fill="#811606"/>
<rect x="33.3828" y="0.846436" width="0.615385" height="5.53846" fill="#811606"/>
<rect x="34.6133" y="5.15405" width="0.615385" height="1.23077" fill="white"/>
<rect x="35.8438" y="3.30811" width="0.615385" height="3.07692" fill="white"/>
<rect x="37.0742" y="5.15405" width="0.615385" height="1.23077" fill="white"/>
<rect x="38.3047" y="5.15405" width="0.615385" height="1.23077" fill="white"/>
<rect x="39.5352" y="5.15405" width="0.615385" height="1.23077" fill="white"/>
<rect x="40.7695" y="5.15405" width="0.615385" height="1.23077" fill="white"/>
<rect x="42" y="3.30811" width="0.615385" height="3.07692" fill="white"/>
<rect x="43.2305" y="5.15405" width="0.615385" height="1.23077" fill="white"/>
<rect x="44.4609" y="5.15405" width="0.615385" height="1.23077" fill="white"/>
<rect x="45.6914" y="5.15405" width="0.615385" height="1.23077" fill="white"/>
<rect x="46.9219" y="5.15405" width="0.615385" height="1.23077" fill="white"/>
<rect x="48.1523" y="3.30811" width="0.615385" height="3.07692" fill="white"/>
<rect x="49.3828" y="5.15405" width="0.615385" height="1.23077" fill="white"/>
<rect x="50.6133" y="5.15405" width="0.615385" height="1.23077" fill="white"/>
<rect x="51.8438" y="5.15405" width="0.615385" height="1.23077" fill="white"/>
<rect x="53.0742" y="5.15405" width="0.615385" height="1.23077" fill="white"/>
<rect x="54.3047" y="3.30811" width="0.615385" height="3.07692" fill="white"/>
<rect x="55.5352" y="5.15405" width="0.615385" height="1.23077" fill="white"/>
<rect x="56.7695" y="5.15405" width="0.615385" height="1.23077" fill="white"/>
<rect x="58" y="5.15405" width="0.615385" height="1.23077" fill="white"/>
<rect x="59.2305" y="5.15405" width="0.615385" height="1.23077" fill="white"/>
<rect x="60.4609" y="3.30811" width="0.615385" height="3.07692" fill="white"/>
<rect x="61.6914" y="5.15405" width="0.615385" height="1.23077" fill="white"/>
</svg>
