<svg width="9" height="8" viewBox="0 0 9 8" fill="none" xmlns="http://www.w3.org/2000/svg">
<path d="M3.83166 0.00186763C1.79361 0.052721 0.218025 1.86258 0.0263473 3.77473C-0.147945 5.51287 0.46867 7.80851 4.11896 7.99222C7.57974 8.16652 8.64042 5.37088 8.42223 3.61565C8.17578 1.63178 6.48024 -0.0641983 3.83166 0.00186763Z" fill="url(#paint0_linear_3243_461)"/>
<path d="M3.85907 0.282995C1.96431 0.330226 0.499561 2.01288 0.321357 3.79057C0.159379 5.40644 0.73253 7.54069 4.12623 7.7115C7.34362 7.87348 8.32968 5.2746 8.12699 3.64265C7.89779 1.79831 6.32148 0.22142 3.85907 0.282995Z" fill="url(#paint1_linear_3243_461)"/>
<path d="M4.13393 7.41987C1.15705 7.26992 0.535504 5.48063 0.611422 4.02458C0.615334 3.95098 0.62084 3.87839 0.628084 3.80696C0.792379 2.16908 2.14195 0.618702 3.88792 0.575093C5.07609 0.545392 6.04028 0.929618 6.71948 1.54638C7.3374 2.10765 7.71989 2.86118 7.82029 3.67078C8.00719 5.17436 7.09863 7.5691 4.13407 7.41973L4.13393 7.41987Z" fill="url(#paint2_linear_3243_461)"/>
<path style="mix-blend-mode:multiply" opacity="0.8" d="M7.82029 3.67076C7.71974 2.86116 7.3374 2.10749 6.71948 1.54636C6.04028 0.929603 5.07609 0.545523 3.88792 0.575079C2.14195 0.618543 0.792379 2.16892 0.628084 3.80695C0.620839 3.87838 0.615334 3.95096 0.611422 4.02456C0.535504 5.48062 1.15705 7.26991 4.13393 7.41986C7.09849 7.56909 8.00704 5.17449 7.82014 3.67091L7.82029 3.67076ZM4.14146 7.22021C1.48202 7.08388 0.927264 5.4431 0.995648 4.10772C0.999125 4.04021 1.00405 3.97371 1.01057 3.90822C1.15792 2.40609 2.3642 0.983789 3.92399 0.943222C4.98554 0.91555 5.84671 1.26761 6.45333 1.83294C7.00519 2.34741 7.34667 3.03835 7.43606 3.78073C7.60253 5.15956 6.78989 7.35597 4.14131 7.22021H4.14146Z" fill="url(#paint3_linear_3243_461)"/>
<path style="mix-blend-mode:multiply" d="M7.82029 3.67076C7.71974 2.86116 7.3374 2.10749 6.71948 1.54636C6.04028 0.929603 5.07609 0.545523 3.88792 0.575079C2.14195 0.618543 0.792379 2.16892 0.628084 3.80695C0.620839 3.87838 0.615334 3.95096 0.611422 4.02456C0.535504 5.48062 1.15705 7.26991 4.13393 7.41986C7.09849 7.56909 8.00704 5.17449 7.82014 3.67091L7.82029 3.67076ZM4.13813 7.36973C1.68326 7.30033 0.670679 5.91338 0.767749 3.9301C0.989708 2.09938 2.42563 0.794429 3.98557 0.754007C5.04711 0.726335 5.9461 1.04667 6.53751 1.62779C7.32813 2.4045 7.55762 3.00735 7.64701 3.74987C7.81348 5.1287 7.00837 7.45086 4.13798 7.36987L4.13813 7.36973Z" fill="url(#paint4_linear_3243_461)"/>
<path style="mix-blend-mode:screen" opacity="0.5" d="M3.83168 0.00186763C1.79363 0.052721 0.218046 1.86258 0.0263675 3.77473C-0.0689645 4.72486 0.07215 5.8416 0.815971 6.68887C1.18571 7.11091 8.40081 4.86626 8.42239 3.61565C8.17581 1.63178 6.48026 -0.0641983 3.83168 0.00186763Z" fill="url(#paint5_linear_3243_461)"/>
<path d="M1.12671 3.58339L6.66075 2.11328C6.66075 2.11328 7.04903 2.62645 7.17392 3.02864L1.77853 4.90094L7.38182 3.77753L7.4095 4.01326L1.3068 5.67765C1.3068 5.67765 0.863028 4.6929 1.12657 3.58339H1.12671Z" fill="#FCF48E"/>
<defs>
<linearGradient id="paint0_linear_3243_461" x1="3.90929" y1="1.70796" x2="4.4008" y2="5.60642" gradientUnits="userSpaceOnUse">
<stop stop-color="#42B8F9"/>
<stop offset="1" stop-color="#005498"/>
</linearGradient>
<linearGradient id="paint1_linear_3243_461" x1="3.72623" y1="1.54024" x2="4.81323" y2="7.35217" gradientUnits="userSpaceOnUse">
<stop stop-color="#007FC3"/>
<stop offset="1" stop-color="#005498"/>
</linearGradient>
<linearGradient id="paint2_linear_3243_461" x1="3.81551" y1="1.54884" x2="4.63277" y2="6.81728" gradientUnits="userSpaceOnUse">
<stop stop-color="#FFE765"/>
<stop offset="1" stop-color="#FDC045"/>
</linearGradient>
<linearGradient id="paint3_linear_3243_461" x1="5.49796" y1="9.07544" x2="3.56185" y2="1.65108" gradientUnits="userSpaceOnUse">
<stop stop-color="white"/>
<stop offset="1" stop-color="#EF9C31"/>
</linearGradient>
<linearGradient id="paint4_linear_3243_461" x1="4.17188" y1="4.00515" x2="4.86543" y2="6.47407" gradientUnits="userSpaceOnUse">
<stop stop-color="white"/>
<stop offset="1" stop-color="#BF7231"/>
</linearGradient>
<linearGradient id="paint5_linear_3243_461" x1="3.17435" y1="0.60034" x2="4.48171" y2="5.11209" gradientUnits="userSpaceOnUse">
<stop stop-color="#33A4EF"/>
<stop offset="1"/>
</linearGradient>
</defs>
</svg>
