<svg width="17" height="15" viewBox="0 0 17 15" fill="none" xmlns="http://www.w3.org/2000/svg">
<path d="M12.3274 14.8157C12.3274 14.8157 12.0212 14.6288 11.4553 14.3209C10.7708 13.9482 10.0152 13.4074 9.4079 12.9722C8.9733 12.6609 8.48075 12.3086 8.35861 12.2831C8.33248 12.287 8.23363 12.3177 7.91492 12.5291C7.67575 12.6876 7.37068 12.9091 7.04742 13.1432C6.44864 13.5772 5.77032 14.0698 5.16529 14.422C4.40915 14.8623 3.70356 15.1747 3.20703 14.8918C2.61848 14.5561 3.45757 12.9097 4.0376 10.906C4.19781 10.3538 4.39551 9.66979 4.38358 9.51413C4.30177 9.4238 3.90808 9.13066 3.52688 8.84661C2.93434 8.40519 2.12252 7.80016 1.50102 7.24796C0.695443 6.53215 0.389235 6.07255 0.509673 5.75725C0.623294 5.45957 1.1255 5.26414 2.13786 5.12382C2.92866 5.01417 3.86831 4.96134 4.62332 4.91873C5.13746 4.88976 5.66807 4.86021 5.79816 4.82499C5.87258 4.70683 6.04642 4.16883 6.19981 3.69162C6.79859 1.8379 7.35079 0.130742 7.58996 0.0517756C7.64223 0.0313238 8.08819 0.00121424 8.14159 7.80319e-05C8.14159 7.80319e-05 8.14557 7.80319e-05 8.14727 7.80319e-05C8.51427 -0.00673923 8.89604 0.432974 9.34882 1.38285C9.70615 2.13218 10.0459 3.07239 10.2936 3.75866C10.4475 4.18417 10.606 4.62275 10.6731 4.7375C10.7992 4.75909 11.2355 4.74603 11.6582 4.73353C12.3774 4.71251 13.3619 4.68353 14.1965 4.75625C15.256 4.84828 15.8246 5.07609 15.986 5.4732C16.0769 5.6976 16.0246 5.96972 15.8298 6.28275C15.6758 6.52987 15.4361 6.80484 15.0963 7.12241C14.4919 7.68824 13.6857 8.2768 13.0977 8.70628C12.7398 8.96761 12.3365 9.26189 12.2586 9.3579C12.2604 9.49652 12.4546 10.0425 12.6268 10.5259C12.875 11.2247 13.1847 12.0945 13.3568 12.8546C13.5744 13.8141 13.5255 14.3794 13.2034 14.6333C13.0904 14.7225 12.5387 14.8265 12.3274 14.8163V14.8157Z" fill="url(#paint0_linear_3243_371)"/>
<path d="M7.66011 0.194972C8.61679 0.164863 9.87003 4.73981 10.0967 4.90967C10.3234 5.07954 14.9279 4.50746 15.3619 5.57492C15.7959 6.64296 11.772 9.01821 11.6312 9.34941C11.4903 9.68062 13.5195 13.8568 12.6253 14.5623C11.7311 15.2679 8.33047 12.2189 7.8828 12.1803C7.43514 12.1416 4.04753 15.2253 3.2323 14.7368C2.4165 14.2482 4.22534 9.79197 4.03219 9.4903C3.83903 9.18864 -0.129748 6.62592 0.163962 5.85727C0.457104 5.08863 5.1417 5.16305 5.40075 4.99659C5.65924 4.83014 6.70399 0.224514 7.66067 0.194972H7.66011Z" fill="#FBE563"/>
<path d="M15.3617 5.57496C15.1509 5.05571 14.4055 4.8279 10.8844 4.95175C10.4669 6.19249 9.69367 7.22758 8.59382 8.10644C7.49453 8.98586 6.06916 9.70963 3.93479 10.1897C3.04571 12.9075 2.84232 14.5033 3.23148 14.7362C4.04727 15.2248 7.43431 12.1411 7.88198 12.1797C8.32965 12.2184 11.7298 15.2674 12.6245 14.5618C13.0716 14.209 12.7881 12.9887 12.4103 11.815C12.0326 10.6413 11.5605 9.51477 11.6309 9.34888C11.7718 9.01768 15.7957 6.64243 15.3617 5.57439V5.57496Z" fill="#FBE357"/>
<path d="M14.7415 6.20378C14.579 5.80441 13.5916 5.16586 11.501 6.43784C11.3152 6.5509 9.84098 7.69222 8.45765 8.75287C7.38847 9.57265 5.93526 10.2061 4.01961 10.6594C3.67421 11.4599 3.40947 12.145 3.23677 12.7012C2.97885 13.8743 2.97885 14.5839 3.23392 14.7367C3.64182 14.981 4.69225 14.3322 5.69666 13.6278C6.70164 12.9228 7.6606 12.1615 7.88443 12.1808C8.10826 12.2001 9.07007 12.9722 10.0881 13.6511C11.1062 14.33 12.1793 14.9157 12.627 14.5629C13.0457 14.2322 12.811 13.1233 12.4719 12.0348C12.1458 10.9878 11.6044 9.57605 11.6339 9.36245C11.6993 8.89206 15.1397 7.35931 14.7415 6.20435V6.20378Z" fill="#FBD64C"/>
<path d="M15.3624 5.57492C14.9284 4.50688 10.3245 5.07896 10.0972 4.90967C9.87055 4.73981 8.61731 0.165425 7.66062 0.194967C6.70393 0.225076 5.65918 4.83013 5.4007 4.99659C5.14221 5.16304 0.457616 5.08862 0.163906 5.85727C-0.129236 6.62591 3.83898 9.18863 4.03213 9.4903C4.22529 9.79196 2.41701 14.2482 3.23224 14.7367C4.04804 15.2253 7.43508 12.1416 7.88275 12.1803C8.33041 12.2189 11.7305 15.2679 12.6253 14.5623C13.5195 13.8568 11.4902 9.68061 11.6311 9.34941C11.772 9.0182 15.7959 6.64296 15.3618 5.57492H15.3624ZM12.114 13.8102C11.3147 14.4413 8.27133 11.5343 7.87082 11.4997C7.47087 11.465 4.44628 14.4033 3.71683 13.9664C2.98795 13.5295 4.60478 9.54597 4.43208 9.27669C4.25937 9.00741 0.712127 6.71567 0.974023 6.02827C1.23649 5.34086 5.51659 5.72263 5.74781 5.57435C5.97903 5.42551 6.82039 0.993154 7.67539 0.966453C8.53039 0.939752 9.49219 5.19997 9.695 5.35165C9.89781 5.50334 14.1722 4.82104 14.5602 5.77603C14.9483 6.73044 11.351 8.85402 11.2249 9.15C11.0988 9.44599 12.9133 13.1796 12.1134 13.8102H12.114Z" fill="#FAC43A"/>
<path d="M14.1189 6.83292C13.9894 6.51421 13.0662 6.43809 11.221 7.21639C11.0347 7.29479 9.8519 8.31851 8.21519 9.36496C7.12954 10.0586 5.44568 10.8471 3.75954 11.2113C3.44765 11.7947 3.44311 12.0885 3.20393 12.8571C2.9784 13.9206 2.98067 14.5858 3.23291 14.737C3.64081 14.9812 4.69123 14.3325 5.69621 13.6275C6.70119 12.9224 7.66015 12.1612 7.88398 12.1805C8.10781 12.1998 9.06962 12.9719 10.0877 13.6507C11.1057 14.3296 12.1794 14.9153 12.6265 14.5626C13.0168 14.2546 12.831 13.2565 12.5305 12.2532C12.255 11.3329 11.6011 9.68026 11.6147 9.42121C11.6289 9.14681 13.3707 8.05775 13.8139 7.67712C14.0866 7.44306 14.1911 7.03971 14.1189 6.83292Z" fill="#FCC841"/>
<path d="M13.4966 7.46197C13.4029 7.23189 12.574 7.3671 11.0998 8.0795C10.8759 8.18801 8.29105 9.76905 7.97291 9.97584C7.33834 10.3883 6.61059 10.7564 5.80048 11.0711C5.29259 11.2683 4.1916 11.6069 3.62236 11.7614C3.3474 12.2267 3.35933 12.3636 3.17185 13.0118C2.97813 13.9656 2.98324 14.5871 3.23264 14.7366C3.64054 14.9808 4.69097 14.3321 5.69594 13.627C6.70092 12.922 7.65988 12.1608 7.88372 12.1801C8.10755 12.1994 9.06935 12.9715 10.0874 13.6503C11.1054 14.3292 12.1792 14.9149 12.6263 14.5621C12.9881 14.2764 12.8501 13.3896 12.5899 12.4715C12.3649 11.6779 11.6764 9.70655 11.6343 9.40091C11.5861 9.18163 12.7785 8.58284 13.2921 8.01928C13.4631 7.83124 13.5432 7.61593 13.4977 7.46197H13.4966Z" fill="#FCBB36"/>
<path d="M12.8753 8.09064C12.5026 7.70092 9.77687 9.55237 7.8777 10.5863C6.84489 11.1482 4.72301 11.9856 3.33002 12.3639C3.33002 12.3639 3.22776 12.669 3.14027 13.1672C2.97893 14.012 2.98632 14.5886 3.23231 14.7363C3.64021 14.9806 4.69063 14.3318 5.69561 13.6268C6.70059 12.9218 7.65955 12.1605 7.88338 12.1799C8.10721 12.1992 9.06902 12.9712 10.0871 13.6501C11.1051 14.329 12.1788 14.9147 12.6259 14.5619C12.9594 14.2989 12.8685 13.524 12.6486 12.6906C12.4731 12.0242 12.2282 11.3459 12.1516 10.9931C12.0516 10.5341 11.5602 9.66656 11.6715 9.34161C11.813 9.04562 12.9225 8.31845 12.8753 8.09121V8.09064Z" fill="#FCAE2B"/>
<path d="M12.2517 8.71957C12.2165 8.63322 8.78797 10.5875 8.29259 10.8914C8.04262 11.0448 5.3072 12.4543 3.20123 12.9042C2.94445 13.8484 2.98706 14.5904 3.23077 14.7358C3.63867 14.9801 4.6891 14.3313 5.69408 13.6263C6.69905 12.9213 7.65745 12.16 7.88128 12.1793C8.10511 12.1986 9.06691 12.9707 10.085 13.6496C11.103 14.3285 12.1767 14.9142 12.6238 14.5614C12.9289 14.3205 12.8834 13.6581 12.7062 12.9088C12.5784 12.3702 12.3903 11.8038 12.2795 11.4033C12.0932 10.729 11.5882 9.99326 11.6421 9.42914C11.6711 9.12804 12.2563 8.82922 12.2517 8.71901V8.71957Z" fill="#FFA020"/>
<path d="M7.99614 11.7193C6.15093 12.5737 3.74387 13.5798 3.07635 13.4781C2.9792 14.1036 2.9917 14.5922 3.23201 14.7365C3.63991 14.9807 4.69033 14.332 5.69531 13.627C6.70029 12.9219 7.65868 12.1607 7.88251 12.18C8.10635 12.1993 9.06815 12.9714 10.0862 13.6502C11.1042 14.3291 12.178 14.9148 12.6251 14.5621C13.0722 14.2093 12.7887 12.989 12.4109 11.8153C12.0331 10.6416 11.561 9.51501 11.6314 9.34912C11.6314 9.34912 10.7719 10.4348 7.9967 11.7198L7.99614 11.7193Z" fill="#FF9315"/>
<path d="M7.98477 11.6562C7.47518 11.6022 6.55542 12.6958 4.56081 13.8485C4.23642 14.036 3.6615 14.3172 3.453 14.2803C3.17974 14.232 3.12861 13.9201 3.07635 13.4781C2.9792 14.1036 2.9917 14.5922 3.23201 14.7365C3.63991 14.9807 4.69033 14.332 5.69531 13.627C6.70029 12.9219 7.65868 12.1607 7.88251 12.18C8.10635 12.1993 9.06815 12.9714 10.0862 13.6502C11.1042 14.3291 12.178 14.9148 12.6251 14.5621C13.0722 14.2093 12.7887 12.989 12.4109 11.8153C12.0331 10.6416 11.561 9.51501 11.6314 9.34912C11.6314 9.34912 11.2883 9.77918 11.5587 10.6552C11.7916 11.4091 12.1439 12.3737 12.3103 13.1662C12.4262 13.7184 12.3353 14.2621 11.5218 13.9099C9.85781 13.1906 8.4563 11.7062 7.98591 11.6562H7.98477Z" fill="#F88014"/>
<path d="M9.41919 5.50527C9.23569 5.36779 8.46478 1.56433 7.69045 1.58308C7.16779 1.59614 6.45936 5.59844 6.05431 5.86659C5.64925 6.1353 2.08666 5.85579 1.96338 6.38981C1.8634 6.82384 2.47468 7.43853 4.66529 9.01559C4.97093 9.66721 6.54572 9.08604 7.9461 8.14696C8.93233 7.48625 10.1998 5.82512 9.89356 5.69559C9.68847 5.60924 9.44305 5.52232 9.41976 5.5047L9.41919 5.50527Z" fill="#FCF48E"/>
<path d="M12.2933 14.8184C11.9695 14.8247 11.5361 14.6752 10.9702 14.3668C10.2857 13.9941 9.53008 13.4533 8.92278 13.0181C8.48818 12.7068 7.99563 12.3545 7.87349 12.329C7.84736 12.3329 7.74851 12.3636 7.4298 12.575C7.19063 12.7335 6.88556 12.955 6.5623 13.1891C5.96352 13.6231 5.28521 14.1157 4.68017 14.4679C3.92403 14.9082 3.44 15.0343 3.15652 14.8639C2.57535 14.5156 2.97245 12.9556 3.55305 10.9519C3.71326 10.3997 3.91096 9.71569 3.89903 9.56003C3.81722 9.4697 3.42353 9.17656 3.04233 8.8925C2.44979 8.45109 1.63797 7.84606 1.01647 7.29386C0.210892 6.57861 -0.094748 6.11902 0.0251221 5.80429C0.138743 5.5066 0.640948 5.31117 1.65331 5.17085C2.44411 5.06121 3.38376 5.00837 4.13877 4.96576C4.6529 4.93679 5.18351 4.90725 5.31361 4.87203C5.38803 4.75386 5.56187 4.21587 5.71526 3.73866C6.3629 1.73098 6.956 0.0675645 7.65648 0.0459765C7.65648 0.0459765 7.66045 0.0459765 7.66216 0.0459765C8.02915 0.0391592 8.41092 0.478872 8.8637 1.42874C9.22104 2.17807 9.56076 3.11829 9.80846 3.80456C9.96241 4.23007 10.1209 4.66865 10.188 4.7834C10.3141 4.80499 10.7504 4.79192 11.173 4.77943C11.8923 4.75841 12.8768 4.72943 13.7113 4.80215C14.7709 4.89418 15.3395 5.12199 15.5009 5.5191C15.5918 5.7435 15.5395 6.01562 15.3446 6.32865C15.1907 6.57577 14.9509 6.85074 14.6112 7.16831C14.0068 7.73414 13.2006 8.3227 12.6126 8.75218C12.2547 9.01351 11.8514 9.30779 11.7735 9.4038C11.7752 9.54242 11.9695 10.0884 12.1417 10.5718C12.3899 11.2706 12.6995 12.1404 12.8717 12.9005C13.0893 13.86 13.0404 14.4253 12.7183 14.6792C12.6052 14.7684 12.4643 14.815 12.2928 14.8184H12.2933ZM7.87122 12.0307C7.87974 12.0307 7.88826 12.0307 7.89678 12.0313C8.07006 12.0461 8.40865 12.2835 9.09605 12.7755C9.69654 13.2056 10.4442 13.7401 11.1128 14.1043C12.0184 14.598 12.3854 14.5616 12.5342 14.4446C12.6819 14.3281 12.8103 13.9765 12.5814 12.9658C12.4132 12.2227 12.107 11.3621 11.861 10.6712C11.515 9.69808 11.4338 9.43505 11.4952 9.29075C11.5474 9.16747 11.7684 8.99931 12.4371 8.51074C13.0194 8.0858 13.8164 7.50349 14.4078 6.95015C15.218 6.19173 15.2992 5.81395 15.2248 5.63045C15.1481 5.4424 14.8191 5.19698 13.6858 5.0987C12.8683 5.02769 11.8934 5.05609 11.1816 5.07711C10.3033 5.10268 10.1056 5.10154 10.0079 5.02826C9.91526 4.95895 9.83402 4.75329 9.52724 3.90511C9.28125 3.22452 8.94437 2.29283 8.59385 1.55657C8.07062 0.457852 7.77237 0.341391 7.6667 0.343663C7.66613 0.343663 7.66556 0.343663 7.665 0.343663C7.56444 0.347072 7.28153 0.468078 6.82193 1.52475C6.51288 2.23545 6.22769 3.11942 5.99874 3.82955C5.68231 4.81067 5.59653 5.04757 5.4812 5.12199C5.37894 5.18789 5.12273 5.20835 4.15524 5.26288C3.40535 5.30492 2.47252 5.35776 1.69421 5.4657C0.497785 5.63215 0.327354 5.84803 0.303494 5.90996C0.293268 5.93722 0.275656 6.048 0.488128 6.32694C0.641516 6.52919 0.885801 6.77916 1.21473 7.07116C1.82658 7.61484 2.63216 8.21476 3.22071 8.65333C3.86381 9.13281 4.09446 9.30893 4.15865 9.40948C4.25296 9.55662 4.1774 9.86851 3.83938 11.0354C3.63713 11.7342 3.38489 12.6039 3.2565 13.3124C3.07016 14.3418 3.23151 14.5616 3.3099 14.6082C3.40875 14.6673 3.69906 14.6946 4.53019 14.21C5.12216 13.8651 5.79423 13.3777 6.38733 12.9476C7.30368 12.283 7.665 12.0341 7.87122 12.0301V12.0307Z" fill="#CF7D29"/>
<path d="M15.2433 5.68964C15.2785 5.89074 15.1421 6.26513 14.4099 6.95026C13.8185 7.50359 13.0214 8.0859 12.4391 8.51084C11.7699 8.99941 11.5494 9.16757 11.4972 9.29085C11.4358 9.43515 11.5171 9.69818 11.863 10.6713C12.109 11.3627 12.4147 12.2228 12.5834 12.9659C12.8123 13.9766 12.684 14.3282 12.5362 14.4447C12.3874 14.5617 12.0204 14.5981 11.1148 14.1044C10.4468 13.7402 9.69913 13.2051 9.09808 12.7756C8.41067 12.2836 8.07208 12.0462 7.89881 12.0314C7.89029 12.0308 7.88233 12.0303 7.87324 12.0308C7.66702 12.0348 7.30571 12.2836 6.38935 12.9483C5.79625 13.3784 5.12418 13.8658 4.53222 14.2106C3.70051 14.6952 3.41078 14.668 3.31193 14.6089C3.23353 14.5623 3.07219 14.3419 3.25853 13.313C2.89039 13.726 2.83358 14.6799 3.15854 14.8651C3.44259 15.035 3.92662 14.9094 4.6822 14.4691C5.28723 14.1169 5.96555 13.6244 6.56433 13.1903C6.88758 12.9563 7.19265 12.7347 7.43182 12.5762C7.75053 12.3649 7.84938 12.3342 7.87551 12.3302C7.99766 12.3558 8.48964 12.708 8.9248 13.0193C9.53211 13.4539 10.2883 13.9948 10.9723 14.368C11.5381 14.6765 11.9716 14.8253 12.2954 14.8196C12.4669 14.8162 12.6073 14.7697 12.7209 14.6805C13.043 14.4265 13.0913 13.8613 12.8743 12.9017C12.7021 12.1416 12.3925 11.2718 12.1443 10.5731C11.9721 10.0896 11.7784 9.54366 11.7761 9.40504C11.854 9.30903 12.2573 9.01418 12.6152 8.75342C13.2038 8.32394 14.0093 7.73538 14.6138 7.16955C14.9535 6.85141 15.1933 6.57702 15.3472 6.32989C15.5421 6.01686 15.308 5.64248 15.2438 5.69134L15.2433 5.68964Z" fill="#C17324"/>
<path d="M6.62109 5.1232C6.62109 5.1232 6.80118 4.44886 7.0057 3.75861C7.21022 3.06836 7.43973 2.36164 7.53802 2.29801C7.6363 2.23382 7.75503 2.60479 7.82264 3.082C7.89024 3.5592 7.90785 4.14265 7.80275 4.5051C7.74992 4.68632 7.65107 4.86528 7.53177 5.01923C7.41246 5.17319 7.27271 5.30272 7.13921 5.38396C6.8722 5.54757 6.62905 5.52087 6.62166 5.1232H6.62109Z" fill="#FCF48E"/>
<path d="M7.6035 2.44546C7.68304 2.43182 7.77734 2.74769 7.83131 3.14422C7.84495 3.24535 7.85574 3.35101 7.86369 3.45782C7.88812 3.79527 7.88074 4.14466 7.81654 4.39405C7.80461 4.44064 7.78984 4.48722 7.77109 4.53267C7.73019 4.6338 7.66088 4.7423 7.57737 4.84059C7.47454 4.96159 7.35808 5.06555 7.24162 5.13089C7.02233 5.25473 6.82009 5.23712 6.78884 4.93319C6.71499 4.91671 6.75703 4.67584 6.8269 4.4253C6.89621 4.17647 6.97859 3.88333 7.06324 3.59644C7.08766 3.51406 7.11209 3.43169 7.13652 3.35215C7.2081 3.11809 7.27741 2.9096 7.33593 2.76643C7.445 2.49886 7.54442 2.37728 7.6035 2.44489V2.44546Z" fill="#FCF69C"/>
<path d="M7.66446 2.59387C7.72581 2.63023 7.79569 2.89099 7.83489 3.20799C7.84568 3.29548 7.8542 3.38638 7.86045 3.47784C7.87977 3.7653 7.87409 4.06072 7.82466 4.28398C7.81557 4.32489 7.80535 4.36522 7.79114 4.40442C7.76388 4.47998 7.70138 4.57542 7.6173 4.66348C7.53266 4.7521 7.43778 4.82993 7.33836 4.87993C7.16736 4.96514 7.00489 4.95548 6.95092 4.74528C6.80321 4.71233 6.82877 4.45101 6.8799 4.26694C6.95205 4.00788 7.03386 3.71474 7.11567 3.43694C7.1401 3.35343 7.16509 3.27105 7.18895 3.19209C7.26849 2.93246 7.34348 2.71885 7.39972 2.61091C7.50255 2.41378 7.60197 2.4223 7.66389 2.59387H7.66446Z" fill="#FFF9AB"/>
<path d="M7.73077 2.74215C7.76315 2.83305 7.81882 3.03472 7.84439 3.27106C7.85234 3.34491 7.85859 3.42103 7.86257 3.49716C7.8762 3.73406 7.87279 3.97607 7.83871 4.17321C7.83303 4.20786 7.82678 4.24251 7.81712 4.27546C7.80292 4.32489 7.74895 4.40897 7.66373 4.4851C7.59897 4.54304 7.52455 4.59417 7.4416 4.62712C7.32003 4.67484 7.19675 4.672 7.11892 4.55554C6.89793 4.50555 6.90645 4.22434 6.9394 4.10674C7.01439 3.83689 7.09563 3.54431 7.17459 3.2756C7.19959 3.19095 7.22402 3.10858 7.24788 3.03075C7.33537 2.74613 7.41547 2.52684 7.47001 2.45469C7.56659 2.32857 7.63533 2.47571 7.73077 2.74272V2.74215Z" fill="#FFFBB9"/>
<path d="M6.99622 3.94703C7.10018 3.57378 7.20812 3.17952 7.30357 2.86876C7.39957 2.55858 7.48309 2.33247 7.53762 2.29725C7.62568 2.23987 7.72794 2.50972 7.79498 2.89035C7.82849 3.08067 7.85349 3.29825 7.86315 3.51697C7.87281 3.73569 7.86769 3.95441 7.84099 4.147C7.83758 4.17029 7.79725 4.24755 7.70806 4.3072C7.61886 4.36742 7.48138 4.4106 7.28482 4.36629C6.98997 4.29982 6.98202 3.99815 6.99622 3.94759V3.94703Z" fill="#FFFFC7"/>
<path d="M4.50853 6.28127C4.58011 6.23298 4.94597 6.19037 5.31978 6.16538C5.69416 6.14038 6.0765 6.13299 6.18273 6.15572C6.28897 6.17844 6.32078 6.2932 6.22932 6.41137C6.13785 6.52953 5.92368 6.65054 5.5368 6.68633C5.28456 6.70962 4.94143 6.66588 4.70453 6.58748C4.58579 6.54828 4.49376 6.50056 4.45286 6.44829C4.41195 6.39603 4.42218 6.33865 4.50796 6.28127H4.50853Z" fill="#FCF48E"/>
<path d="M4.52102 6.28382C4.5659 6.25371 4.72611 6.22758 4.93006 6.20656C5.02834 6.19633 5.13685 6.18781 5.24706 6.18043C5.3942 6.17077 5.54475 6.16338 5.67825 6.15941C5.83335 6.15543 5.95946 6.16395 6.01684 6.18213C6.10888 6.21111 6.13615 6.30655 6.06911 6.41449C5.9873 6.54515 5.75892 6.65195 5.45612 6.67297C5.21184 6.69002 4.89711 6.64287 4.68464 6.56901C4.5784 6.53208 4.49716 6.48777 4.46308 6.43892C4.42899 6.39006 4.44149 6.33722 4.52216 6.28325L4.52102 6.28382Z" fill="#FCF69C"/>
<path d="M4.52925 6.2867C4.57072 6.25887 4.70991 6.23671 4.89 6.2191C4.97578 6.21058 5.07122 6.20319 5.1695 6.19694C5.29676 6.18842 5.42856 6.18217 5.54957 6.17763C5.6808 6.17308 5.78931 6.18672 5.84498 6.21058C5.92281 6.24353 5.94894 6.3242 5.90236 6.42021C5.83191 6.56621 5.58706 6.65256 5.36891 6.66222C5.13258 6.67301 4.84682 6.62245 4.65821 6.55314C4.5639 6.51849 4.49403 6.47702 4.46619 6.43214C4.43835 6.38726 4.45312 6.33783 4.52868 6.28727L4.52925 6.2867Z" fill="#FFF9AB"/>
<path d="M4.53916 6.28943C4.57722 6.26387 4.69539 6.24569 4.85219 6.23092C4.92604 6.2241 5.00842 6.21785 5.09477 6.21217C5.20214 6.20535 5.31462 6.19911 5.42427 6.19399C5.53107 6.18888 5.62254 6.20649 5.67708 6.23717C5.74184 6.27353 5.76797 6.3417 5.73957 6.42351C5.68389 6.58655 5.41916 6.64791 5.28565 6.64904C5.0567 6.65132 4.80049 6.60019 4.63574 6.53486C4.55336 6.50247 4.49428 6.46441 4.47326 6.42294C4.45224 6.38147 4.46928 6.33602 4.53916 6.28943Z" fill="#FFFBB9"/>
<path d="M4.5509 6.29224C4.58556 6.26894 4.68213 6.25417 4.81564 6.24281C4.94914 6.23088 5.11901 6.22236 5.29967 6.211C5.38204 6.20588 5.45817 6.22577 5.50986 6.2644C5.56156 6.30303 5.58997 6.35984 5.57747 6.42801C5.54452 6.60924 5.25194 6.64105 5.20309 6.63707C4.98209 6.62117 4.75428 6.57856 4.61396 6.51777C4.54409 6.48766 4.4958 6.45301 4.48103 6.41495C4.46682 6.37688 4.48557 6.33598 4.5509 6.29224Z" fill="#FFFFC7"/>
<path d="M3.48423 6.16335C3.20075 6.16847 2.90249 6.27357 2.96555 6.34685C3.02861 6.42014 3.54104 6.54739 3.7751 6.4315C4.00916 6.31561 3.62115 6.16108 3.48423 6.16335Z" fill="#FFFFC7"/>
<defs>
<linearGradient id="paint0_linear_3243_371" x1="0.517387" y1="7.60028" x2="16.0603" y2="7.30998" gradientUnits="userSpaceOnUse">
<stop stop-color="#C17324"/>
<stop offset="1" stop-color="#98440E"/>
</linearGradient>
</defs>
</svg>
