<svg width="26" height="26" viewBox="0 0 26 26" fill="none" xmlns="http://www.w3.org/2000/svg">
<path d="M19.5 19.5C23.0899 15.9101 23.0898 10.0899 19.5 6.5C15.9101 2.91015 10.0899 2.91015 6.5 6.5C2.91015 10.0899 2.91015 15.9101 6.5 19.5C10.0899 23.0899 15.9101 23.0899 19.5 19.5Z" fill="#FEE475"/>
<path d="M19.3373 19.3338C22.8353 15.8357 22.8353 10.1643 19.3373 6.66622C15.8392 3.16818 10.1678 3.16818 6.66971 6.66623C3.17166 10.1643 3.17166 15.8357 6.66971 19.3338C10.1678 22.8318 15.8392 22.8318 19.3373 19.3338Z" fill="#FED425"/>
<g style="mix-blend-mode:soft-light">
<path d="M19.3504 6.68506L6.68359 19.3519C7.53252 20.196 8.54996 20.8691 9.68046 21.3202L21.3187 9.68192C20.8676 8.55143 20.1946 7.53346 19.3504 6.68506Z" fill="white"/>
</g>
<g style="mix-blend-mode:soft-light">
<path d="M21.7297 14.9954L14.9922 21.7329C18.3372 20.9722 20.9685 18.3404 21.7297 14.9954Z" fill="white"/>
</g>
<g style="mix-blend-mode:soft-light">
<path d="M8.60096 5.19811L5.19786 8.60121C4.82279 9.26471 4.52855 9.97999 4.33203 10.7349L10.7346 4.33228C9.97974 4.52879 9.26447 4.82304 8.60096 5.19811Z" fill="white"/>
</g>
<g style="mix-blend-mode:soft-light">
<path d="M18.1744 5.6897L5.69141 18.1727C5.83668 18.3782 5.98988 18.5773 6.15206 18.7696L18.7708 6.15088C18.5785 5.98923 18.3793 5.83603 18.1738 5.69023L18.1744 5.6897Z" fill="white"/>
</g>
<g style="mix-blend-mode:soft-light">
<path d="M13.1778 19.6561C16.7623 19.6561 19.6681 16.7503 19.6681 13.1658C19.6681 9.58134 16.7623 6.67554 13.1778 6.67554C9.5933 6.67554 6.6875 9.58134 6.6875 13.1658C6.6875 16.7503 9.5933 19.6561 13.1778 19.6561Z" fill="white"/>
</g>
<path d="M17.5883 17.5893C20.1229 15.0547 20.1229 10.9453 17.5883 8.41067C15.0537 5.87605 10.9443 5.87605 8.40965 8.41067C5.87503 10.9453 5.87503 15.0547 8.40965 17.5893C10.9443 20.124 15.0537 20.124 17.5883 17.5893Z" fill="#FEB724"/>
<path d="M6.86017 13.3532C6.86017 9.76885 9.76617 6.86285 13.3505 6.86285C15.0531 6.86285 16.602 7.51949 17.7594 8.59187C16.574 7.31241 14.8798 6.5105 12.9981 6.5105C9.41381 6.5105 6.50781 9.4165 6.50781 13.0008C6.50781 14.8825 7.30972 16.5766 8.58919 17.7621C7.5168 16.6041 6.86017 15.0558 6.86017 13.3532Z" fill="#FB9D12"/>
<g style="mix-blend-mode:soft-light">
<path d="M12.9976 4.1605C18.0151 4.1605 22.0912 8.18167 22.1852 13.1764C22.1863 13.1178 22.1895 13.0592 22.1895 13C22.1895 7.92335 18.0737 3.80762 12.9971 3.80762C7.92042 3.80762 3.80469 7.92335 3.80469 13C3.80469 13.0592 3.80786 13.1173 3.80891 13.1764C3.90347 8.18115 7.97906 4.1605 12.9965 4.1605H12.9976Z" fill="white"/>
</g>
</svg>
